<svg width="401" height="400" viewBox="0 0 401 400" fill="none" xmlns="http://www.w3.org/2000/svg">
<path d="M142.04 300.2C145.374 299.02 148.79 298.083 152.26 297.4L152.68 298.94C152.727 299.122 152.838 299.28 152.992 299.386C153.146 299.493 153.334 299.54 153.52 299.52L167.26 297.92C171.04 289.3 177.98 276.24 178.08 276.04C177.98 272.78 178.08 270.04 178.08 266.92C170.22 269.84 155.68 275.38 148.08 278.92C147.908 279.03 147.775 279.193 147.7 279.383C147.625 279.573 147.611 279.782 147.66 279.98C147.66 279.98 147.8 280.48 147.98 281.2C144.26 281.2 133.12 280.66 130.44 283.2C130.023 283.78 129.819 284.486 129.86 285.2C129.7 287.96 131.08 309.4 133.28 315.7C134.42 319 136.82 318.64 138.46 315.48C140.358 310.722 141.577 305.718 142.08 300.62C142.08 300.36 142.02 300.38 142.04 300.2ZM139.74 282.3C142.18 282.1 142.94 282.14 148.18 281.98C149.12 285.54 151.06 292.86 152.06 296.6C148.531 297.146 145.049 297.955 141.64 299.02C140.578 293.503 139.943 287.913 139.74 282.3Z" fill="#A7D129"/>
<path d="M326.12 107.26C326.62 106.56 325.98 105.66 325.44 104.96C326.97 103.387 328.667 101.985 330.5 100.78C333.595 99.2377 336.423 97.2127 338.88 94.7799C339.9 93.7199 341.82 91.5399 341.1 90.2599C340.38 88.9799 339.1 88.8999 337.36 89.6399C338.113 88.8487 338.73 87.9356 339.18 86.9399C339.74 85.3799 338.42 84.1199 335.56 85.2799C336.6 83.6199 336.84 81.8799 335.08 81.0399C333.66 80.3599 331.58 81.9799 330.38 83.0399C328.023 85.0988 325.812 87.3174 323.76 89.6799C322.5 87.0399 320.5 83.9999 318 84.9599C315.5 85.9199 317.44 90.2199 318.72 92.5599L314.18 95.6999C313.493 95.3294 312.719 95.1567 311.94 95.1999C306.78 96.0799 283.08 114.12 280.68 114.12C278.84 114.12 252.56 101.52 229.84 97.8799C229.797 97.7436 229.715 97.6228 229.605 97.5308C229.495 97.4388 229.362 97.3796 229.22 97.3599C225.257 96.6836 221.24 96.3825 217.22 96.4599C217.099 96.4683 216.98 96.5028 216.873 96.5614C216.765 96.6203 216.673 96.7018 216.6 96.7999H214.92C214.52 95.1799 213.04 91.4399 212.52 89.9999C213.88 88.8199 215.76 88.2199 216.74 86.3199C218.54 82.7999 218.46 76.6799 217.96 72.7599C220.22 71.0399 220.28 68.2799 219.76 65.4599C219.56 64.3199 218.94 61.7399 217.98 61.0999C217.44 60.7399 216.3 61.0999 215.32 61.4599C214.34 59.1799 214.34 60.2199 214.74 59.2999C214.927 58.8759 215.035 58.4221 215.06 57.9599C216.12 58.2799 218.32 56.1599 217.56 53.3599C217.162 52.3577 216.673 51.3938 216.1 50.4799C216.38 49.7999 216.98 48.9799 215.1 46.4799C214.29 45.6065 213.239 44.9938 212.08 44.7199H211.16C210.497 43.7567 209.522 43.0505 208.4 42.7199C206.707 42.2879 204.91 42.5396 203.4 43.4199C203 43.7199 202.68 44.1199 202.28 44.3999C201.375 43.8508 200.339 43.5607 199.28 43.5607C198.222 43.5607 197.185 43.8508 196.28 44.3999C195.75 44.6076 195.268 44.9203 194.863 45.3188C194.459 45.7178 194.137 46.1941 193.92 46.7199C192.94 46.3817 191.9 46.2516 190.867 46.3378C189.835 46.4239 188.83 46.7243 187.92 47.2199C184.465 49.0934 181.88 52.245 180.72 55.9999C180.688 56.5661 180.688 57.1338 180.72 57.6999H180.5C177.5 57.2599 173.68 64.3799 176.74 69.9199C177.1 70.5799 177.56 71.1999 178 71.9199C179.28 73.9199 178.78 74.5199 181.64 76.9599C182.48 77.6799 182.62 77.6199 183.14 78.0599C183.66 78.4999 183.46 78.2799 183.76 79.3999C183.923 80.0596 184.217 80.6807 184.622 81.2265C185.027 81.7723 185.537 82.2323 186.12 82.5799C186.333 84.5363 187.167 86.3727 188.5 87.8199C188.922 88.2927 189.415 88.697 189.96 89.0199C190.107 89.1028 190.272 89.1508 190.44 89.1599C191.04 92.8799 191.78 97.7199 192.1 99.7799L190.32 100.74C187.992 101.677 185.727 102.766 183.54 104C183.368 104.119 183.247 104.297 183.2 104.5C181.08 105.62 179.08 106.68 177.94 107.36C162.06 116.78 116.96 178.88 116.5 181.72C116.449 181.883 116.449 182.057 116.5 182.22C117.147 183.252 117.934 184.187 118.84 185C118.561 185.51 118.225 185.985 117.84 186.42C113.84 189.04 107.84 192.94 104.62 196.42C104.394 196.622 104.225 196.878 104.129 197.165C104.032 197.452 104.012 197.758 104.071 198.055C104.129 198.352 104.264 198.628 104.463 198.858C104.661 199.087 104.915 199.26 105.2 199.36C105.8 199.56 105.9 199.5 109.8 197.36C108.728 198.3 107.852 199.442 107.22 200.72C106.96 201.82 107.96 202.46 109.22 202.26C109.929 202.073 110.604 201.777 111.22 201.38C110.859 201.937 110.668 202.587 110.668 203.25C110.668 203.913 110.859 204.563 111.22 205.12C113.22 207.64 118.46 199.7 121.22 197.74C122.34 199.16 123.86 202.48 126.28 201.6C128.38 200.82 126.08 196.2 126.28 194.86C127.094 194.078 127.963 193.357 128.88 192.7C130.423 193.843 132.187 194.655 134.06 195.08C137.36 195.08 171.8 160.32 174.42 157.54C173.48 166.38 168.74 204.32 169.74 211.7C170.2 215.04 178.22 215.52 181.6 215.7C180.58 239.7 179.9 276.06 179.72 276.44C174.42 287.86 172.98 290.98 171.2 294.44C167.96 300.64 154.32 323.52 152.78 328.72C152.56 329.54 152.54 329.86 153.4 331.38C150.823 334.09 148.431 336.97 146.24 340C145.14 342 149.86 360.64 153.2 367.24C153.96 368.72 155.2 371 156.86 370.942C161.86 370.76 161.84 352.8 161.7 347.78C161.699 347.625 161.643 347.477 161.54 347.36C162.447 346.007 163.435 344.712 164.5 343.48C165.136 343.918 165.805 344.305 166.5 344.64C167.18 344.94 167.94 344.42 168.5 343.96C175.16 338.72 211.08 293.96 218.78 272.84C222.28 263.2 226.94 249.88 228.26 240.44C229.067 234.472 229.142 228.427 228.48 222.44C228.48 222.355 228.513 222.273 228.573 222.213C228.633 222.153 228.715 222.12 228.8 222.12C228.885 222.12 228.967 222.153 229.027 222.213C229.087 222.273 229.12 222.355 229.12 222.44C230.122 228.46 230.317 234.588 229.7 240.66C228.22 253.76 217.88 281.06 212.36 291.1C217.12 290.22 226.8 288.3 231.48 286.9C247.08 282.16 261.48 268.02 262.74 252.14C263.148 244.658 263.148 237.162 262.74 229.68C262.605 219.352 261.263 209.075 258.74 199.06C262.98 196.76 266.86 194.06 268.12 191.58C270.82 186.28 263.68 155.78 262.12 147.22C270.66 148.16 285.2 149.86 291.98 144.56C299.74 138.32 316.5 120.76 326.12 107.26ZM160.62 346.68C157.02 344.5 151.98 339.32 151.22 335.26C152.04 334.22 152.9 333.26 153.7 332.18C156.411 336.317 159.79 339.973 163.7 343C162.602 344.165 161.573 345.393 160.62 346.68ZM319.62 93.1199C319.723 93.0541 319.799 92.9508 319.827 92.8319C319.857 92.7127 319.84 92.5868 319.78 92.4799C319.08 91.1799 316.98 86.5999 318.44 86.0799C319.28 85.7599 320.02 86.2799 320.64 86.9799C321.587 88.181 322.323 89.5334 322.82 90.9799C322.857 91.0974 322.925 91.2028 323.019 91.2847C323.11 91.3665 323.223 91.4214 323.343 91.4443C323.465 91.4668 323.59 91.4559 323.707 91.413C323.822 91.3701 323.923 91.2963 324 91.1999C326 88.9799 330.68 83.9199 333.32 82.5599C335.32 81.5199 335.8 83.4399 330.9 87.9199C329.775 88.7781 328.693 89.6927 327.66 90.6599C327.603 90.7385 327.572 90.833 327.572 90.9301C327.572 91.0268 327.603 91.1214 327.66 91.1999C327.66 91.7199 328.08 92.2999 328.8 91.7599C330.539 90.2337 332.377 88.8243 334.3 87.5399C335.282 86.8425 336.423 86.4021 337.62 86.2599C337.02 88.0999 331.44 93.0999 330.96 93.6599C330.808 93.7967 330.715 93.9872 330.702 94.1912C330.69 94.3952 330.757 94.5963 330.89 94.7508C331.025 94.9054 331.213 95.0014 331.417 95.0181C331.622 95.0348 331.823 94.9708 331.98 94.8399C334.2 93.3999 338.08 90.0399 339.42 90.5399C340.76 91.0399 336.78 94.7599 335.78 95.6399C330.04 100.62 331.52 97.4199 324.88 104.18C321.99 101.014 318.672 98.2672 315.02 96.0199L319.62 93.1199ZM232.72 188.78C232.38 186.02 231.96 183.04 231.44 179.94L232.3 178.8C236.3 173.66 237.5 165.48 237.12 159.06C239.26 168.44 240.96 177.66 242.26 186.82L232.72 188.78ZM202.98 120.3C197.72 116.3 189.26 109.4 184.34 104.68L192.34 100.68C199.687 107.542 205.975 115.454 211 124.16C218.685 138.277 224.385 153.386 227.94 169.06L199.42 128.72L203.14 121C203.19 120.881 203.2 120.75 203.172 120.625C203.143 120.499 203.077 120.386 202.98 120.3ZM216.5 97.6199C216.62 97.8399 218 100.78 220.1 105.92C220.1 106.14 219.72 111.14 219.54 112.9C216.987 111.888 214.58 110.543 212.38 108.9C212.82 107.16 214.8 99.2599 214.94 97.4799L216.5 97.6199ZM209.4 119.1C209.54 118.74 209.68 118.26 209.84 117.7L211.18 118.4C211.94 118.9 211.64 117.38 212.32 121.78C212.32 122.52 212.52 123.34 212.56 124.24C211.64 122.58 210.5 120.8 209.42 119.1H209.4ZM208.28 117.42C204.502 112.061 200.2 107.09 195.44 102.58L210.5 109.12C209.92 110.5 209.08 114.72 208.3 117.42H208.28ZM223.66 129.14C221.66 123.68 220.12 117.58 219.36 115.98C219.405 115.481 219.405 114.979 219.36 114.48C219.65 114.588 219.952 114.655 220.26 114.68C220.453 114.682 220.64 114.614 220.787 114.489C220.935 114.365 221.032 114.191 221.06 114C221.22 113.34 221.48 110 221.52 109.26C227.339 123.949 232.195 139.001 236.06 154.32C224.76 130.28 226.5 137.24 223.68 129.14H223.66ZM240.2 167.32C235.64 145.46 227.62 118.2 218.5 97.9999C221.85 98.0018 225.193 98.2694 228.5 98.7999C230.2 114 228.78 113.48 229.92 114.08C231.06 114.68 237.92 117.44 238.94 117.86C238.84 119.4 240.28 163.44 240.22 167.32H240.2ZM217.18 62.3799C218.223 64.6552 218.59 67.1818 218.24 69.6599C218.077 70.2908 217.743 70.8639 217.273 71.3156C216.803 71.7676 216.219 72.0803 215.582 72.2192C214.947 72.3581 214.283 72.3177 213.668 72.1025C213.053 71.8872 212.512 71.5054 212.1 70.9999C211.145 68.9897 210.428 66.8756 209.96 64.6999C210.5 63.9999 216.26 62.5999 217.18 62.3799ZM189.66 82.3799C188.93 82.0472 188.182 81.7538 187.42 81.4999C186.908 81.2898 186.453 80.9654 186.087 80.5516C185.72 80.1377 185.453 79.6458 185.307 79.1127C185.16 78.5799 185.137 78.0207 185.24 77.4774C185.343 76.9345 185.568 76.4221 185.9 75.9799C187.16 74.9199 188.3 74.9799 189.34 76.5599C190 77.7799 189.98 77.8799 190.28 77.9999C190.367 78.0378 190.46 78.057 190.553 78.0559C190.647 78.0548 190.74 78.0338 190.825 77.9941C190.91 77.9545 190.987 77.8967 191.047 77.8254C191.108 77.7541 191.153 77.6705 191.18 77.5799C191.477 76.3283 191.523 75.0301 191.32 73.7599C191.08 72.3799 191.04 66.2599 191.08 66.0599C191.665 66.3679 192.32 66.513 192.98 66.4799C196.6 66.3399 197.32 64.4799 198.76 62.9599C200.42 63.1199 200.76 63.9199 202.64 62.9599C203.52 62.4592 204.328 61.8403 205.04 61.1199C205.615 61.3552 206.17 61.6363 206.7 61.9599C207.899 62.5363 209.25 62.7134 210.557 62.465C211.863 62.2167 213.057 61.5559 213.96 60.5799C214.18 60.9999 214.38 61.4199 214.56 61.8599C212.722 62.4305 210.992 63.3021 209.44 64.4399C209.1 64.8599 209.6 67.1399 209.72 67.6799C208.045 67.8908 206.423 68.413 204.94 69.2199C204.64 68.1799 203.98 66.2399 202.94 65.6999C202.627 65.6043 202.293 65.6043 201.98 65.6999C200.18 65.9799 193.72 67.9199 192.94 68.9799C192.26 69.7199 194.2 75.4399 194.8 76.3799C197.1 79.9399 203.84 78.8999 205.1 74.7399C205.412 73.3439 205.412 71.8959 205.1 70.4999C205.68 70.4999 207.42 69.8799 207.62 69.8199C209 72.9199 209.4 73.0999 211 76.4399C210.78 76.6199 210.42 76.9199 210.12 77.1199C208.7 78.0599 208.4 77.8999 208.48 78.2999C208.503 78.3792 208.555 78.4476 208.625 78.4916C208.695 78.5359 208.779 78.553 208.86 78.5399C209.7 78.4199 210.52 78.1916 211.3 77.8599C211.767 77.6858 212.152 77.3432 212.38 76.8999C212.94 75.6399 209.84 70.8999 208.62 69.4799C208.86 69.4799 209.42 69.0799 209.84 68.8599C210.4 71.0999 210.78 72.8599 212.94 73.7399C213.565 73.9756 214.23 74.0828 214.897 74.0556C215.563 74.0279 216.217 73.8661 216.82 73.5799C217.14 77.0999 217.08 82.8199 215.4 85.9399C214.54 87.5599 212.42 88.1799 211.06 89.5199C210.66 89.8999 210.92 90.4399 211.06 91.0199C213.28 97.1999 213.32 97.1799 213.2 97.9799C212.612 101.3 211.79 104.575 210.74 107.78C210.24 107.56 204.62 104.58 193.62 100.3C193.28 98.0399 191.46 85.9799 190.88 83.7599C190.92 82.9799 190.82 82.7999 189.66 82.2799V82.3799ZM203.66 74.2199C203.02 76.3999 200 77.3399 197.84 76.7399C195.68 76.1399 195.54 75.0399 194.52 72.4399C194.042 71.4468 193.712 70.3887 193.54 69.2999C194.2 68.5799 201.42 67.0999 202.32 66.9599C203.582 69.1196 204.057 71.6501 203.66 74.1199V74.2199ZM125.4 194.3C124.64 195.04 125.66 197.46 125.82 199.56C125.82 199.74 125.82 200.52 125.7 200.58C124.6 200.94 123.58 199.28 122.96 198.28C122.34 197.28 121.72 195.92 120.74 196.28C118.74 197.22 114.1 203.38 112.28 204.02C111.36 202.26 116.62 197.24 116.8 196.96C116.877 196.832 116.918 196.683 116.917 196.535C116.916 196.385 116.875 196.237 116.796 196.11C116.718 195.982 116.606 195.878 116.473 195.808C116.339 195.74 116.19 195.71 116.04 195.72C115.68 195.72 115.44 196.04 114.88 196.54C113.177 198.202 111.227 199.592 109.1 200.66C111.029 198.447 113.093 196.357 115.28 194.4C115.388 194.288 115.464 194.15 115.5 194C115.5 194 115.08 192.94 114.26 193.36C113.1 194 107.46 197.26 105.68 198.1C105.44 197.94 105.58 197.7 105.68 197.46C108.5 194 114.7 189.8 118.5 187.14C118.946 186.68 119.317 186.155 119.6 185.58C122.232 188.028 125.039 190.282 128 192.32C127.088 192.918 126.219 193.58 125.4 194.3ZM171.94 212.48C171.5 212.2 171.18 211.94 171.12 211.58C170.02 203.42 176.14 157.18 176.04 155.36C176.04 155.253 176.019 155.148 175.977 155.049C175.937 154.951 175.875 154.862 175.799 154.787C175.722 154.713 175.632 154.654 175.532 154.615C175.433 154.576 175.327 154.557 175.22 154.56C174.2 154.56 176 154.56 150.52 178.96C148.84 180.54 136 192.82 133.86 193.64C130.92 193.42 119.86 184.6 118.06 181.82C121.54 174.78 163.74 116.86 178.34 108C179.46 107.32 181.38 106.26 183.48 105.14C184.207 105.825 184.988 106.447 185.82 107C190.46 111.4 196.92 116.88 201.82 121L198 128.58C197.942 128.68 197.912 128.794 197.912 128.91C197.912 129.026 197.942 129.14 198 129.24C229.02 173.74 228.56 173.24 228.76 173.24C230.748 183.523 231.985 193.937 232.46 204.4C232.46 207.22 232.46 206.98 232.58 206.78C232.7 206.58 232.58 206.92 232.58 206.92C227.74 212.2 179.84 217.12 171.94 212.48ZM282.5 146.22C273.44 147.48 263.2 145.6 261.22 145.52C260.12 140.188 257.927 135.142 254.78 130.7C254.732 130.635 254.662 130.591 254.582 130.576C254.503 130.561 254.422 130.577 254.353 130.62C254.285 130.663 254.235 130.73 254.213 130.808C254.193 130.886 254.202 130.969 254.24 131.04C255.4 133.4 259.28 143.58 260.24 146.06C259.94 147.02 269.28 185.64 266.64 190.84C264.28 195.54 250.54 201.46 245.58 203.16C244.6 192.025 242.997 180.955 240.78 170C241.46 164.24 240.58 130 240.32 117.34C240.312 117.193 240.263 117.051 240.179 116.931C240.093 116.81 239.977 116.717 239.84 116.66L230.86 112.88C230.82 108.127 230.519 103.38 229.96 98.6599C252.38 102.54 278.5 115.36 280.68 115.38C283.84 115.38 307.32 97.3799 312.18 96.6599C314.34 96.3199 323.62 104.42 324.7 106.66C315.22 119.9 298.56 137.3 290.84 143.32C288.353 144.983 285.482 145.981 282.5 146.22Z" fill="#A7D129"/>
<path d="M201.6 70.2199C201.575 70.0887 201.525 69.9636 201.452 69.8519C201.378 69.7399 201.283 69.6436 201.173 69.5683C201.062 69.4934 200.938 69.4407 200.806 69.4134C200.677 69.3861 200.542 69.385 200.41 69.4101C200.278 69.4348 200.153 69.4854 200.042 69.5588C199.93 69.6323 199.833 69.7265 199.758 69.837C199.683 69.9476 199.63 70.0719 199.603 70.2028C199.577 70.3338 199.575 70.4687 199.6 70.5999C200 72.5999 200.08 73.0599 200.96 73.0599C201.126 73.0603 201.29 73.0196 201.437 72.941C201.583 72.8621 201.708 72.7483 201.798 72.609C201.89 72.4701 201.945 72.3105 201.96 72.1447C201.973 71.9788 201.946 71.8123 201.88 71.6599C201.82 71.3399 201.64 70.3999 201.6 70.2199ZM207.72 83.4599C209.02 83.8399 210.26 83.2199 210.22 82.8999C210.18 82.5799 210.22 82.7399 208.46 82.0799C207.28 81.6399 205.98 80.0799 205.52 80.3199C205.06 80.5599 205.76 81.8399 205.92 82.0799C206.348 82.729 206.982 83.2152 207.72 83.4599ZM244.3 64.4599C241.68 75.4399 239.76 84.7599 239.44 86.6199C239.226 87.429 239.186 88.2741 239.32 89.0999C240.38 91.3599 254.08 95.8199 255.82 94.9399C257.56 94.0599 262.08 83.8799 267.34 73.3799C270.562 73.4828 273.786 73.2483 276.96 72.6799C280.302 72.0668 283.553 71.0388 286.64 69.6199C293.4 66.4999 300.8 53.1399 301.8 46.4199C302.55 39.1239 301.005 31.776 297.38 25.4C280.6 -3.70005 231.38 11.9599 235.38 44.2799C236.522 51.6752 239.6 58.6374 244.3 64.4599ZM256.5 88.2799C256.5 88.5999 256.14 88.5599 254.5 88.2799C251.145 87.8585 247.897 86.821 244.92 85.2199C243.52 84.4599 243.14 84.2999 243.28 83.9599C243.42 83.6199 243.72 83.7399 245.88 84.3399C246.08 84.3399 252.28 86.3399 254.06 86.9599C256.36 87.9999 256.5 87.9999 256.5 88.2799ZM256.14 55.7399C258.275 55.8505 260.403 55.4101 262.32 54.4599C264.1 55.3225 266.026 55.845 268 55.9999C264.64 62.2599 257.82 75.0199 255.62 81.8199L247.14 79.4799C249.14 74.5599 253.56 63.0399 256.1 55.7399H256.14ZM255.44 54.0799C253.946 53.8545 252.568 53.1454 251.518 52.0618C250.466 50.9778 249.8 49.5792 249.62 48.0799C249.06 44.0799 251.62 39.5999 255.48 40.6599C257.9 41.3199 258.2 43.2399 257.78 45.6599C257.42 47.4199 256.12 51.8399 255.4 53.9999L255.44 54.0799ZM260.88 49.2799C261.093 47.9712 261.585 46.7232 262.32 45.6199C262.67 45.0185 263.182 44.5272 263.797 44.2021C264.412 43.8767 265.105 43.7305 265.8 43.7799C267.28 44.2199 267.92 47.0199 266.7 48.7799C265.526 50.3359 264.068 51.653 262.4 52.6599C261.825 52.3232 261.368 51.8188 261.09 51.2145C260.812 50.6105 260.723 49.9352 260.84 49.2799H260.88ZM242.5 23.86C251.46 13.0799 268.32 8.79995 280.5 13.2399C287.117 15.5112 292.681 20.1101 296.16 26.18C299.608 32.2471 301.083 39.2367 300.38 46.1799C299.46 52.3999 292.38 65.3199 286.16 68.1799C280.473 70.7741 274.268 72.0327 268.02 71.8599C267.34 71.8599 266.62 71.8599 266.36 72.3399C265.18 74.7399 263.02 79.3799 260.9 83.7399C259.435 83.033 257.918 82.4443 256.36 81.9799C258.68 75.3399 266 62.2999 269.48 55.9799C272.495 56.2381 275.526 55.7148 278.28 54.4599C279.023 54.0683 279.64 53.4727 280.058 52.7425C280.475 52.0127 280.677 51.1788 280.637 50.3388C280.597 49.4992 280.317 48.6883 279.833 48.001C279.348 47.3141 278.678 46.7792 277.9 46.4599C274.8 44.9399 272.02 48.5799 270.4 51.6399C269.96 52.4399 269.46 53.3799 268.9 54.4399C267.282 54.3338 265.686 54.0039 264.16 53.4599C265.68 52.3908 267.03 51.0963 268.16 49.6199C268.793 48.6636 269.113 47.5345 269.078 46.3883C269.042 45.2418 268.652 44.1348 267.96 43.2199C267.417 42.589 266.662 42.1778 265.837 42.0636C265.012 41.9494 264.173 42.1403 263.48 42.5999C262.078 43.4607 260.957 44.7072 260.246 46.1901C259.538 47.673 259.272 49.3294 259.48 50.9599C259.697 51.8803 260.193 52.7116 260.9 53.3399C259.588 53.8832 258.18 54.1556 256.76 54.1399C257.56 51.7799 258.86 47.5199 259.2 45.7799C259.413 44.7879 259.46 43.7676 259.34 42.7599C259.185 41.8952 258.783 41.0934 258.183 40.4512C257.585 39.8087 256.812 39.3538 255.96 39.1399C251.1 37.7599 247.52 43.1399 248.22 48.1599C248.417 49.9589 249.19 51.6461 250.422 52.9719C251.653 54.2978 253.28 55.1912 255.06 55.5199C252.5 62.7199 248.5 74.3399 246.5 79.2999L242.1 78.1599C244.92 63.9999 245.26 64.3399 244.86 64.1599C240.315 58.3661 237.408 51.4596 236.44 44.1599C235.968 40.5403 236.265 36.8621 237.308 33.3648C238.352 29.8671 240.122 26.6286 242.5 23.86ZM270.26 54.5599C271.66 52.0199 274.46 46.4599 277.18 47.8199C277.723 48.0392 278.198 48.4028 278.55 48.8716C278.903 49.3403 279.12 49.8963 279.18 50.4799C279.14 53.9999 273.66 54.6199 270.18 54.5599H270.26ZM346.82 63.3799C349.23 61.9625 352.077 61.4785 354.82 62.0199C357.833 62.0738 360.712 63.2785 362.865 65.3872C365.02 67.4959 366.282 70.3483 366.398 73.3599C364.587 72.3087 362.468 71.913 360.4 72.2399C355.38 72.6799 348.82 75.3999 349.7 80.2399C350.42 84.2399 355.7 83.6999 359.7 82.6199C363.7 81.5399 366.878 79.5799 367.7 75.7199C372.558 79.2599 373.7 85.4599 373.9 91.5199C373.9 91.6047 373.933 91.6861 373.994 91.7461C374.053 91.8061 374.136 91.8399 374.22 91.8399C374.304 91.8399 374.387 91.8061 374.445 91.7461C374.507 91.6861 374.54 91.6047 374.54 91.5199C374.678 84.7399 373.46 78.0999 367.918 74.2399C367.976 72.5036 367.678 70.7738 367.049 69.1548C366.42 67.5363 365.464 66.0625 364.249 64.8225C363.032 63.5828 361.575 62.6032 359.968 61.9425C358.362 61.2821 356.637 60.9545 354.9 60.9799C352.123 60.5745 349.293 61.1549 346.9 62.6199C346.16 62.9799 346.5 63.5199 346.82 63.3799ZM365.06 77.7199C362.8 80.6799 356.4 82.2199 353.44 81.7199C352.34 81.5399 351.44 81.0799 351.2 79.9399C350.48 75.9399 357.38 73.7599 361.5 73.6199C363.177 73.4912 364.849 73.9203 366.26 74.8399C366.107 75.8858 365.696 76.8763 365.06 77.7199ZM337.66 39.9999C339.8 37.3599 338.36 32.76 332.38 32.74C330.06 32.74 328.94 35.1 329.1 37.3599C329.46 42.7399 335.52 42.5799 337.66 39.9999ZM330.5 37.2599C330.5 35.94 331.12 34.22 332.5 34.24C335.72 34.24 337.2 35.74 337.2 37.3999C337.12 41.1799 330.24 43.1399 330.5 37.2599ZM329.68 264C312.1 256.98 303.94 290.96 289.58 320.16C289.488 321.386 289.53 322.622 289.7 323.84C289.7 326.9 290.04 347.16 291.82 349.46C292.3 350.38 294.32 349.46 295.26 348.88C303.243 343.938 310.766 338.288 317.74 332C317.8 331.932 317.843 331.853 317.872 331.766C317.898 331.68 317.908 331.59 317.9 331.5C321.62 326.2 335.56 298.6 338.94 284.76C341.3 274.96 338.96 267.66 329.68 264ZM335.96 289.4C326.548 288.193 317.448 285.222 309.14 280.64C313.82 271.78 319.6 261.68 329.14 265.48C339.76 269.7 339.54 278.44 335.96 289.34V289.4ZM302.68 341.4C302.065 340.885 301.395 340.442 300.68 340.08C297.977 338.706 294.855 338.405 291.94 339.24C291.74 336.86 290.6 321.38 290.6 321.24C305.58 326.72 300.96 324.34 315.8 331.72C314.24 333.2 308.38 337.3 302.68 341.36V341.4ZM313 283.52C314.95 284.585 316.953 285.553 319 286.42C314.415 293.62 310.365 301.148 306.88 308.94C303.52 315.96 303.64 315.92 300.22 323.58C298.22 322.94 296.22 322.34 294.22 321.74C296.38 317.44 311.74 286 313 283.48V283.52ZM301 323.78C307.5 312.12 314.12 297.62 319.8 286.68C321.8 287.52 323.8 288.2 325.8 288.8C324.74 290.8 321.64 296.12 320.82 297.66C320 299.2 311.78 315.4 311.2 316.64C310.28 318.64 307.76 324.22 306.98 326C304.94 325.1 302.98 324.42 300.92 323.74L301 323.78ZM307.7 326.26C308.92 324.04 313.94 314.72 314.56 313.52C315.5 311.66 325.98 290.24 326.56 289C328.4 289.52 330.34 289.96 331.58 290.2C327.92 300.2 317.38 319.46 313.58 328.96C310.12 327.34 309.34 326.94 307.62 326.22L307.7 326.26ZM308.92 281.22L312.5 283.22C305.285 295.506 299.001 308.315 293.7 321.54L290.7 320.62C302.32 295.86 302.86 292.62 308.84 281.18L308.92 281.22ZM317.16 330.7L314.14 329.26C317.4 322.86 327.6 306.44 332.26 290.34C333.38 290.54 334.48 290.72 335.54 290.86C330.4 304.573 324.23 317.878 317.08 330.66L317.16 330.7ZM254.5 343.68C255.297 343.02 255.866 342.126 256.128 341.125C256.39 340.123 256.332 339.065 255.96 338.1C255.79 336.706 255.152 335.412 254.148 334.43C253.145 333.448 251.837 332.837 250.44 332.698C249.043 332.558 247.64 332.898 246.463 333.662C245.285 334.425 244.402 335.568 243.96 336.9C241.4 335.24 238.62 333.48 235.96 331.8C237.96 329.14 243.84 330.32 244.44 332.5C244.453 332.585 244.5 332.662 244.568 332.712C244.638 332.762 244.725 332.783 244.81 332.77C244.895 332.757 244.97 332.71 245.022 332.642C245.072 332.572 245.093 332.485 245.08 332.4C244.78 328.92 237.54 326.88 234.62 330.98C232.04 329.4 228.84 327.48 226.16 326.02C228.46 324.02 233.6 325.14 234.16 327.22C234.186 327.292 234.237 327.35 234.303 327.388C234.368 327.425 234.446 327.438 234.52 327.423C234.595 327.408 234.662 327.368 234.71 327.308C234.757 327.25 234.782 327.175 234.78 327.1C234.52 323.86 227.82 321.68 224.78 325.24C223.506 324.526 222.166 323.937 220.78 323.48C220.526 323.375 220.248 323.345 219.978 323.395C219.708 323.445 219.458 323.572 219.26 323.76C214.2 330.06 197.14 346.42 189.26 348.32C189.062 348.35 188.875 348.432 188.718 348.557C188.562 348.682 188.442 348.845 188.368 349.032C188.295 349.218 188.272 349.422 188.302 349.618C188.333 349.817 188.415 350.003 188.54 350.16C190.27 351.917 192.252 353.406 194.42 354.58C192.42 356.58 190.86 358.38 189.7 359.68C189.1 360.32 188.78 372.56 189.3 375.262C189.377 375.524 189.548 375.753 189.78 375.902C192.3 377.622 224.76 391.662 228.08 389.782C230.3 388.52 256.8 360.94 257.22 360.1C257.86 358.78 257.64 349.98 257.6 346.46C257.44 345.4 255.46 344.26 254.5 343.68ZM190.5 370.102V365.64C198.8 369.64 217.8 377.8 225 380.08C226.84 380.68 227 380.6 227.96 380.08C233.46 376.56 252.88 354.68 256.44 351.34V355.56C245.64 366.382 227.3 385.342 226.96 384.262C224.98 384.142 192.22 370.902 190.5 370.102ZM254 336.94C254.718 338.152 255.105 339.532 255.12 340.94C255.113 341.388 255.003 341.828 254.798 342.228C254.593 342.627 254.3 342.973 253.94 343.24C252.26 342.12 249.08 340.04 245.32 337.6C247.38 333.54 251.96 333.48 253.92 336.94H254ZM190 349.74C198.52 347.22 214.7 331.62 220.14 324.86C221.448 325.225 222.712 325.742 223.9 326.4C221.9 330.12 224.04 334.2 224.8 333.62C225.22 333.3 224.46 333.18 224.34 331.22C224.288 329.788 224.613 328.368 225.28 327.1C228.04 328.54 231.28 330.42 234.02 332C232.34 335.74 234.36 339.44 235.06 338.9C235.76 338.36 234.74 338.48 234.62 336.52C234.572 335.235 234.817 333.955 235.34 332.78C238.16 334.44 241.04 336.16 243.68 337.78C243.273 338.777 243.112 339.857 243.208 340.928C243.306 342 243.66 343.033 244.24 343.94C244.266 343.973 244.298 344.003 244.337 344.025C244.373 344.045 244.415 344.06 244.457 344.065C244.5 344.07 244.543 344.068 244.585 344.057C244.626 344.045 244.665 344.026 244.7 344C244.733 343.973 244.763 343.942 244.783 343.903C244.805 343.866 244.82 343.825 244.825 343.782C244.83 343.74 244.828 343.697 244.817 343.655C244.805 343.613 244.786 343.573 244.76 343.54C244.4 342.745 244.223 341.88 244.24 341.008C244.257 340.137 244.468 339.28 244.86 338.5C249.52 341.34 253.28 343.72 254.44 344.5C254.22 344.7 233.36 363.26 226.26 368.782C221.6 367.56 197.14 355.42 190 349.74ZM190.76 360.88C199.82 364.88 220.4 374.16 225.14 375.062C225.96 375.222 226.28 375.28 227.84 374.04C234.5 368.702 256.16 346.04 256.36 346.28C256.37 346.34 256.37 346.4 256.36 346.46V350.46C251.9 354.04 227.1 380.08 226.7 378.84C224.7 378.84 192.2 365.582 190.54 364.84C190.5 364 190.68 361.76 190.76 360.88ZM227.18 388.44C225.18 389.582 194.72 377.2 190.64 374.68C190.486 373.404 190.413 372.124 190.42 370.84C199.18 375.16 224.66 385.92 227 385.822C230.42 385.64 254.6 358.42 256.32 356.52C256.34 357.542 256.238 358.562 256.02 359.56C255.68 360.22 228.5 387.702 227.18 388.44ZM61.4792 275.7C61.6192 277.84 61.7192 279.7 61.7192 281.44C61.7192 281.705 61.8246 281.96 62.0119 282.146C62.1995 282.335 62.4537 282.44 62.7192 282.44C62.9843 282.44 63.2388 282.335 63.4261 282.146C63.6137 281.96 63.7192 281.705 63.7192 281.44C63.7192 279.58 63.6192 277.74 63.4792 275.56C63.4606 275.295 63.3374 275.048 63.1366 274.873C62.9359 274.698 62.6744 274.612 62.409 274.63C62.1439 274.648 61.897 274.772 61.7225 274.972C61.5479 275.173 61.4606 275.435 61.4792 275.7ZM366.22 235.6C366.089 235.608 365.962 235.642 365.842 235.698C365.725 235.757 365.62 235.837 365.536 235.937C365.449 236.035 365.384 236.15 365.344 236.273C365.304 236.398 365.289 236.53 365.3 236.66C365.42 238.5 365.54 240.48 365.54 242.4C365.54 242.665 365.645 242.92 365.834 243.106C366.02 243.295 366.274 243.4 366.54 243.4C366.805 243.4 367.06 243.295 367.245 243.106C367.434 242.92 367.54 242.665 367.54 242.4C367.54 240.4 367.42 238.4 367.278 236.52C367.271 236.39 367.238 236.262 367.18 236.145C367.122 236.026 367.042 235.922 366.944 235.837C366.845 235.75 366.729 235.685 366.605 235.645C366.482 235.605 366.351 235.588 366.22 235.6ZM56.2992 270.72C56.5643 270.72 56.8188 270.615 57.0061 270.426C57.1937 270.24 57.2992 269.985 57.2992 269.72C57.2992 269.455 57.1937 269.2 57.0061 269.013C56.8188 268.825 56.5643 268.72 56.2992 268.72C53.8792 268.72 51.8592 268.9 49.8592 268.86C49.5919 268.86 49.3355 268.965 49.145 269.152C48.9541 269.338 48.8443 269.593 48.8392 269.86C48.8392 270.125 48.9446 270.38 49.1319 270.566C49.3195 270.755 49.5737 270.86 49.8392 270.86C51.8992 270.9 54.1592 270.82 56.2992 270.72ZM360.02 229.68C357.62 229.68 355.6 229.82 353.58 229.84C353.315 229.84 353.06 229.945 352.873 230.133C352.685 230.32 352.58 230.575 352.58 230.84C352.58 231.105 352.685 231.36 352.873 231.546C353.06 231.735 353.315 231.84 353.58 231.84C355.74 231.84 357.98 231.84 360.14 231.68C360.405 231.663 360.653 231.543 360.83 231.345C361.005 231.146 361.095 230.885 361.08 230.62C361.063 230.355 360.943 230.106 360.745 229.93C360.545 229.753 360.285 229.663 360.02 229.68ZM60.9392 258.36C61.0592 260.2 61.1792 262.18 61.1792 264.1C61.1843 264.363 61.2912 264.615 61.4777 264.802C61.6639 264.988 61.9155 265.095 62.1792 265.1C62.4443 265.1 62.6988 264.995 62.8861 264.806C63.0737 264.62 63.1792 264.365 63.1792 264.1C63.1792 262.1 63.0592 260.1 62.9392 258.22C62.9206 257.955 62.7974 257.708 62.5966 257.533C62.3959 257.358 62.1344 257.272 61.869 257.29C61.6039 257.308 61.357 257.432 61.1825 257.632C61.0079 257.833 60.9206 258.095 60.9392 258.36ZM366.998 225.06C366.998 223.06 366.878 221.06 366.74 219.18C366.722 218.915 366.598 218.668 366.398 218.493C366.198 218.318 365.936 218.232 365.671 218.25C365.405 218.268 365.158 218.392 364.984 218.592C364.809 218.793 364.722 219.055 364.74 219.32C364.86 221.16 364.98 223.14 364.98 225.06C364.98 225.325 365.085 225.58 365.274 225.766C365.46 225.955 365.714 226.06 365.98 226.06C366.245 226.06 366.504 225.955 366.693 225.768C366.885 225.582 366.994 225.326 366.998 225.06ZM75.6992 270.46C75.8305 270.455 75.9595 270.423 76.0788 270.368C76.1981 270.313 76.3057 270.235 76.3948 270.138C76.4839 270.042 76.5534 269.93 76.5984 269.805C76.6439 269.682 76.6646 269.552 76.6592 269.42C76.6388 269.158 76.5206 268.913 76.3275 268.735C76.1348 268.558 75.8817 268.46 75.6192 268.46C73.1992 268.56 71.1792 268.64 69.1592 268.6C68.8937 268.6 68.6395 268.705 68.4519 268.893C68.2646 269.08 68.1592 269.335 68.1592 269.6C68.1592 269.865 68.2646 270.12 68.4519 270.306C68.6395 270.495 68.8937 270.6 69.1592 270.6C71.2992 270.64 73.5392 270.56 75.6992 270.46ZM379.42 229.42C377.42 229.52 375.198 229.58 372.98 229.58C372.849 229.575 372.718 229.597 372.591 229.643C372.467 229.69 372.358 229.762 372.26 229.852C372.165 229.943 372.089 230.053 372.038 230.175C371.987 230.297 371.958 230.428 371.958 230.56C371.958 230.826 372.064 231.083 372.253 231.275C372.438 231.465 372.693 231.575 372.958 231.58C375.238 231.58 377.078 231.58 379.5 231.42C379.631 231.415 379.758 231.383 379.878 231.328C379.998 231.273 380.107 231.195 380.194 231.098C380.285 231.002 380.354 230.89 380.398 230.765C380.445 230.642 380.464 230.512 380.46 230.38C380.434 230.12 380.314 229.878 380.122 229.702C379.933 229.523 379.682 229.423 379.42 229.42ZM29.739 211.2C29.999 211.4 86.3992 203.04 88.8192 201.56C88.9534 201.462 89.0603 201.332 89.1301 201.182C89.1999 201.032 89.2308 200.865 89.2192 200.7C89.2192 198.12 85.8392 173.9 84.2192 167.86C84.0192 167.12 83.8192 166.38 83.3592 166.12C80.2992 164.28 26.3791 174.44 23.1591 176.52C23.0719 176.572 22.9964 176.642 22.9379 176.723C22.8792 176.806 22.8389 176.9 22.819 177C22.139 179.42 27.999 210 29.739 211.2ZM24.0391 177.48C27.8791 175.74 76.8192 166.78 82.4192 167.48C83.7792 170.98 87.4192 196.62 87.6592 200.38C84.8792 201.2 30.4991 210.54 30.2991 210.58C30.0991 210.62 30.0791 210.86 29.6591 209.6C27.8991 204.32 23.9391 182 24.0391 177.48Z" fill="#A7D129"/>
<path d="M93.2192 203.34C93.3279 203.138 93.3767 202.908 93.3592 202.68C93.3592 199.5 88.7992 164.2 87.1792 161.38C87.0523 161.172 86.8727 161.001 86.6581 160.885C86.4439 160.769 86.2028 160.712 85.9592 160.72C79.2592 159.9 22.7392 170.94 19.0192 173.52C18.4992 173.88 18.5792 174.78 18.6392 175.74C18.9592 181 24.6392 215.6 26.6392 215.4C26.8592 215.4 26.7792 215.24 26.2592 216.3C23.1392 222.72 17.2192 243.28 17.3392 247.42C17.3392 249.16 17.7392 251.42 19.4592 251.3C31.7992 249.78 92.2992 240.18 109.699 236.6C110.379 236.46 110.819 235.84 110.799 234.82C110.594 233.12 110.079 231.473 109.279 229.96C106.839 225.38 96.7192 207.24 93.2192 203.34ZM26.7592 214.78C25.1992 212.78 19.4592 178.32 19.8992 174.5C24.2992 172.22 80.0592 161.44 85.8992 162.32C87.4992 166.72 91.6392 198.5 91.8992 202.32C84.8192 204.76 35.7992 212.68 26.7592 214.78ZM27.6392 215.38C29.3192 214.96 86.5392 205.38 91.7792 204C94.6392 206.66 107.559 229.64 108.399 231.6C96.9192 233.6 28.8192 244.98 18.7992 246.5C18.9392 240.44 25.1592 219.26 27.6392 215.38Z" fill="#A7D129"/>
<path d="M35.1602 236.12C36.9002 235.86 73.8202 231.42 87.1602 227.8C87.2424 227.778 87.3129 227.725 87.3562 227.653C87.3991 227.58 87.4115 227.492 87.3904 227.41C87.3689 227.328 87.3162 227.257 87.2427 227.215C87.1697 227.171 87.0824 227.158 87.0002 227.18C84.3802 227.72 52.4202 231.98 35.1202 235.5C35.0724 235.491 35.0232 235.493 34.9766 235.506C34.9299 235.52 34.8867 235.543 34.8506 235.577C34.8142 235.608 34.7859 235.648 34.7674 235.693C34.749 235.738 34.741 235.786 34.7442 235.835C34.7474 235.883 34.7614 235.932 34.7855 235.973C34.8095 236.015 34.8429 236.051 34.8829 236.078C34.923 236.106 34.9689 236.125 35.0169 236.132C35.0649 236.138 35.1139 236.135 35.1602 236.12ZM62.1402 96.9599C61.3929 98.6471 60.7649 100.385 60.2602 102.16C60.2304 102.445 60.3089 102.73 60.4802 102.96C62.5002 106 83.2002 129.34 88.6002 132.62C89.3402 133.08 90.2202 133.4 90.7602 132.74C94.6827 127.859 99.8024 124.076 105.62 121.76C110.355 120.085 115.32 119.147 120.34 118.98C124.34 118.62 125.04 118.22 126.58 115.6C128.397 112.152 130.807 109.051 133.7 106.44C137.389 103.214 141.484 100.485 145.88 98.3199C146.078 98.2079 146.233 98.0326 146.32 97.8224C146.407 97.6122 146.421 97.3791 146.36 97.1599C145.684 95.4395 144.79 93.813 143.7 92.3199C144.42 92.0799 145.22 91.8599 145.22 91.1399C145.22 89.1399 127.78 63.8999 122.94 59.1399C122.44 58.6399 121.72 57.9799 121.06 58.0199C111.06 58.5799 101.32 68.0199 95.6802 76.2599C89.2202 76.0199 85.0402 75.4399 77.6802 78.5399C72.4842 80.7453 67.7998 84.0002 63.9202 88.0999C63.3202 88.7199 59.2402 93.0399 59.1802 93.3799C59.1202 93.7199 59.2402 93.7199 62.1402 96.9599ZM142.14 96.3999C133.8 97.8199 128.48 104.76 124.56 112.3C122.82 115.66 122.98 115.82 121.14 115.78C117.923 115.598 114.695 115.718 111.5 116.14C109.157 116.49 106.853 117.066 104.62 117.86C99.5402 119.66 93.7202 125.42 90.6202 129.7C90.5544 129.788 90.4704 129.861 90.3744 129.914C90.2784 129.968 90.1722 130 90.0624 130.01C89.9529 130.019 89.8428 130.005 89.7388 129.969C89.6351 129.933 89.5402 129.875 89.4602 129.8C82.9602 123.1 71.4602 111.34 65.6802 104.58C65.4002 104.28 65.8802 103.84 66.1602 104.16C69.9002 108.16 79.5602 117.74 89.9202 128.16C93.4202 123.7 98.8202 118.3 104.16 116.42C107.072 115.381 110.102 114.709 113.18 114.42C116.063 114.201 118.958 114.201 121.84 114.42C123.02 113.06 128.86 97.6199 142.1 95.8999C142.139 95.9282 142.171 95.965 142.193 96.0075C142.216 96.05 142.229 96.097 142.23 96.145C142.233 96.193 142.223 96.241 142.205 96.285C142.185 96.3293 142.157 96.3682 142.12 96.3999H142.14ZM121.04 59.6399C125.04 62.4399 141.32 86.5399 143.44 90.7599C139.762 91.9253 136.21 93.4599 132.84 95.3399C129.649 96.9399 126.855 99.2311 124.661 102.048C122.467 104.864 120.93 108.134 120.16 111.62C112.98 99.9399 102.96 87.0799 96.3002 77.6199C96.7002 77.3599 107.94 60.4199 121.04 59.6399ZM78.1202 79.6399C85.4202 76.6999 89.4602 77.3799 95.5002 77.6399C101.5 87.8799 112.28 102.32 119.38 111.78C112.827 110.229 105.931 111.178 100.04 114.44C96.5002 116.44 92.1802 121.24 89.5202 124.22C85.6802 121.14 63.5202 97.5399 59.9602 93.5399C65.4402 87.3399 70.5002 82.6799 78.1202 79.5599V79.6399ZM41.5202 130.5C41.026 130.153 40.4417 129.957 39.838 129.936C39.2344 129.914 38.6377 130.069 38.1202 130.38C37.7435 130.548 37.4031 130.789 37.1195 131.088C36.8354 131.388 36.6134 131.74 36.4657 132.126C36.3181 132.511 36.2477 132.922 36.2589 133.334C36.2699 133.747 36.3621 134.153 36.5302 134.53C36.6982 134.907 36.9391 135.247 37.2384 135.531C37.538 135.814 37.8904 136.037 38.2758 136.184C38.6613 136.332 39.0718 136.402 39.4846 136.391C39.8969 136.38 40.3035 136.288 40.6802 136.12C41.2824 135.988 41.8304 135.677 42.2511 135.226C42.6722 134.776 42.9464 134.209 43.0373 133.599C43.1286 132.99 43.0322 132.367 42.7613 131.814C42.4904 131.26 42.0577 130.802 41.5202 130.5ZM40.2002 134.5C38.8002 134.94 37.9602 134.5 37.6202 133.82C36.9802 132.4 37.7802 130.22 39.8602 130.86C41.3202 131.4 42.5002 133.86 40.2002 134.6V134.5ZM143.22 38.9799C143.8 40.1599 146.5 39.7199 147.68 39.3399C148.3 39.1399 148.7 38.9199 148.76 38.3199C148.94 36.8199 149.14 23.8199 148.46 22.5599C148.39 22.4277 148.282 22.3194 148.15 22.2482C148.019 22.1771 147.869 22.1462 147.72 22.1599C145.586 22.1539 143.463 22.4641 141.42 23.0799C140.6 23.5799 142.5 37.6599 143.22 38.9799ZM141.84 23.5599C143.688 23.2956 145.556 23.2086 147.42 23.2999C147.54 24.7799 147.22 37.5999 147.2 37.7999C146.355 38.1028 145.453 38.2122 144.56 38.1199C144.42 37.6599 144.18 36.4199 143.88 34.8599C142.999 31.1324 142.318 27.3602 141.84 23.5599ZM39.5802 113.62C39.7722 113.718 39.9846 113.769 40.2002 113.769C40.4158 113.769 40.6282 113.718 40.8202 113.62C41.5929 113.143 42.2057 112.447 42.5802 111.62C42.6311 111.487 42.6467 111.344 42.6257 111.204C42.6046 111.064 42.5478 110.932 42.4602 110.82C41.5002 109.68 31.0202 97.5399 29.7402 98.2999C28.1686 99.3173 26.6775 100.454 25.2802 101.7C25.2239 101.75 25.1787 101.812 25.1477 101.881C25.1167 101.95 25.1006 102.024 25.1002 102.1C25.0602 103.14 36.7002 112.46 39.5802 113.62ZM29.9802 98.8199C31.4402 99.8799 36.3602 105.96 40.9202 111.34C40.7242 111.649 40.4813 111.925 40.2002 112.16C35.4059 109.091 30.8284 105.697 26.5002 102C27.5852 100.861 28.7481 99.798 29.9802 98.8199ZM61.4002 54.6999C61.8402 46.9399 66.3602 43.3399 71.0802 42.4199C69.7402 47.3399 69.9602 53.7399 74.8202 54.5599C77.1402 54.9399 78.2802 53.7399 79.9602 52.3399C87.1402 46.3399 81.3402 40.3399 73.2402 40.7599C76.2602 32.4799 83.2402 25.7399 92.5002 25.5199C92.5849 25.5199 92.6664 25.4862 92.7264 25.4262C92.7864 25.3661 92.8202 25.2847 92.8202 25.1999C92.8202 25.1151 92.7864 25.0336 92.7264 24.9736C92.6664 24.9136 92.5849 24.8799 92.5002 24.8799C82.5002 24.6799 74.6402 31.8799 71.5402 40.8799C66.2002 41.7999 60.9002 45.7999 60.7602 54.5799C60.7522 54.622 60.7526 54.665 60.7617 54.7068C60.7704 54.7486 60.7875 54.7882 60.8115 54.8239C60.8358 54.8591 60.8664 54.8893 60.9024 54.9126C60.938 54.9359 60.9784 54.9522 61.0202 54.9599C61.0624 54.9679 61.1053 54.9671 61.1471 54.9584C61.1889 54.9497 61.2286 54.9326 61.2642 54.9086C61.2995 54.8842 61.3297 54.8537 61.3529 54.8177C61.3762 54.782 61.3922 54.742 61.4002 54.6999ZM72.7802 42.1799C75.7602 41.9799 80.2002 42.8999 81.4202 45.5999C82.1202 47.1399 81.4202 49.0399 78.9402 51.1199C78.2667 51.7944 77.4987 52.3671 76.6602 52.8199C73.6602 54.0999 70.3402 50.3999 72.7802 42.1799ZM78.5002 325.04C76.5678 324.522 74.5518 324.397 72.57 324.67C70.5882 324.943 68.6813 325.61 66.9613 326.632C65.2413 327.651 63.7427 329.006 62.5544 330.617C61.3657 332.225 60.5107 334.055 60.0402 336C59.1518 340.04 59.9042 344.266 62.1322 347.75C64.3602 351.235 67.8809 353.691 71.9202 354.58C75.9595 355.468 80.1864 354.717 83.6704 352.488C87.1551 350.26 89.6118 346.74 90.5002 342.7C90.8798 340.751 90.87 338.748 90.4711 336.803C90.0726 334.858 89.2929 333.013 88.1777 331.371C87.062 329.73 85.6326 328.325 83.9718 327.238C82.3107 326.151 80.4511 325.405 78.5002 325.04ZM84.6802 341.34C83.8777 344.54 81.9566 347.348 79.2642 349.255C76.5718 351.163 73.2857 352.045 70.0002 351.74C66.9842 350.562 64.4802 348.357 62.9293 345.515C61.3784 342.672 60.8791 339.373 61.5202 336.2C62.2686 332.922 64.1718 330.022 66.882 328.031C69.5922 326.042 72.9282 325.093 76.2802 325.36C79.326 326.618 81.8304 328.91 83.3522 331.833C84.874 334.757 85.3162 338.123 84.6002 341.34H84.6802Z" fill="#A7D129"/>
<path d="M105.14 330.74C103.399 330.14 101.533 329.995 99.72 330.32C98.9684 328.597 98.044 326.955 96.96 325.42C98.26 324.24 101.82 320.96 100.96 319.42C97.8993 315.758 94.2655 312.618 90.1997 310.12C88.5022 309.168 86.6331 308.563 84.7 308.34C83.42 308.52 80.3797 313.5 79.6997 314.62C79.2597 314.62 77.7 314.12 77.58 314.06C77.58 312.62 77.16 307.42 75.86 306.82C74.4062 306.285 72.8968 305.915 71.36 305.72C69.94 305.5 57.16 307.84 56.22 309.56C55.6 310.72 57.04 315.1 57.46 316.32C56.3815 316.913 55.3455 317.582 54.36 318.32C52.36 319.74 52.9 319.68 52.54 319.52C52.1048 319.312 51.6386 319.177 51.16 319.12C49.5622 318.183 47.6891 317.83 45.86 318.12C44.02 318.72 39.68 328.6 38.98 331.14C38.7509 331.78 38.6891 332.468 38.8 333.14C39.28 334.46 42.48 335.52 43.82 335.94C43.4499 338.513 43.4499 341.127 43.82 343.7C42.06 344.18 38.3997 345.26 38.5997 347.06C38.7997 348.86 43.4797 360.74 45.4197 361.68C46.4826 362.275 47.6579 362.64 48.8702 362.753C50.0826 362.867 51.3051 362.727 52.46 362.34C53.1102 362.015 53.7386 361.648 54.34 361.24C55.14 361.84 55.98 362.38 56.84 362.9C56.22 364.44 54.84 367.88 55.28 369.44C55.5 370.262 56.16 370.52 57.08 370.862C59.62 371.782 73.3 375.062 75.38 374.702C76.16 374.582 76.58 373.76 76.82 372.982C77.2644 371.204 77.5259 369.389 77.5997 367.56C78.6269 367.458 79.6484 367.305 80.66 367.102C81.2779 368.185 82.068 369.167 83 370C84.02 370.72 84.88 370.36 86.04 369.622C86.6 370.342 87.44 371.342 88.34 371.44C90.6 371.702 99.94 362.9 100.9 361.1C101.7 359.6 98.78 356.92 97.48 355.74C98.8862 353.623 99.9902 351.322 100.76 348.9C102.203 349.117 103.663 349.198 105.12 349.14C105.78 349.14 106.54 348.9 106.82 348.28C108.04 345.5 107.68 334.96 106.82 332.28C106.7 331.5 105.8 330.98 105.14 330.74ZM105.62 332.58C106.3 335.18 106.52 345 105.52 347.54C103.791 347.71 102.046 347.63 100.34 347.3C100.158 347.268 99.9706 347.306 99.8153 347.406C99.6597 347.507 99.5473 347.662 99.5 347.84C98.7037 350.543 97.4669 353.098 95.8397 355.4C95.724 355.553 95.6717 355.743 95.6942 355.935C95.7164 356.125 95.812 356.299 95.96 356.42C97.3633 357.532 98.5553 358.887 99.48 360.42C98.48 362.06 90.66 369.222 88.5 369.822C88.18 369.822 87.3 368.622 87.08 368.302C86.3411 367.189 85.6735 366.036 85.08 364.84C84.9935 364.665 84.8448 364.531 84.6637 364.462C84.4822 364.389 84.2811 364.389 84.0997 364.462C78.2997 366.64 76.1 365.36 76.1 366.8C76.1026 368.956 75.7513 371.098 75.0597 373.142C70.3597 372.629 65.7317 371.596 61.26 370.062C61.476 367.924 62.0717 365.844 63.02 363.92C63.62 362.58 61.22 362.96 56.74 358.4C56.5957 358.267 56.4066 358.192 56.2102 358.192C56.0135 358.192 55.8244 358.267 55.68 358.4C53.68 360.04 51.08 361.64 50.56 361.38C49.54 360.88 44.84 350.22 44.56 348.06C45.9826 347.068 47.5975 346.387 49.3 346.06C49.4815 346.008 49.6382 345.893 49.7415 345.735C49.844 345.577 49.8866 345.387 49.86 345.2C49.3699 342.368 49.3699 339.472 49.86 336.64C49.8906 336.465 49.8539 336.287 49.7575 336.139C49.6608 335.99 49.5117 335.883 49.34 335.84C47.832 335.445 46.3808 334.86 45.02 334.1C44.58 333.78 44.62 333.8 44.66 333.46C45.9546 328.792 48.0306 324.375 50.8 320.4C51.88 320.1 54.8 322.24 55.8 323C55.9044 323.102 56.0444 323.158 56.1899 323.158C56.3357 323.158 56.4757 323.102 56.58 323C57.4989 322.047 58.4884 321.165 59.54 320.36C62.58 318.06 63.4 318.36 63.14 317.56C62.2204 315.553 61.704 313.385 61.62 311.18C61.9299 310.922 62.2819 310.72 62.66 310.58C64.5273 309.842 66.4455 309.24 68.4 308.78C70.7691 308.12 73.204 307.723 75.66 307.6C76.08 307.78 76.46 309.6 76.56 310.16C77.3 314.16 76.8 314.98 77.38 315.04C83.08 315.6 84.24 317.18 84.64 316.48C85.7491 314.54 87.0419 312.712 88.5 311.02C88.92 310.6 88.9 310.4 90.16 311.12C93.9244 313.58 97.2957 316.593 100.16 320.06C100.46 320.58 97.86 323.34 95.96 324.96C95.3 325.54 96.24 325.8 97.96 329.08C99.68 332.36 99.2797 333.28 100.2 333.08C101.973 332.655 103.799 332.487 105.62 332.58ZM383.198 165.46C379.005 163.748 374.613 162.584 370.122 162C366.842 161.48 362.98 160.96 359.72 160.54C362.86 156.1 372.158 144.86 373.718 142.12C374.158 141.38 373.322 140.34 372.7 139.72C369.22 136 362.5 134.6 357.34 133.8C354.38 133.32 342.02 131.8 339.92 132.8C337.4 134 318.76 162 318.2 166.26C318.2 166.98 318.44 167.26 319.14 167.52C322.08 168.6 335.34 170.28 338.3 170.98C334.3 177.98 316.52 201.64 314.78 204.98C314.36 205.82 314.62 206.32 315.12 206.48C316.92 207.195 318.772 207.77 320.66 208.2C321.38 208.42 322.96 207.44 325.26 206.04C335.58 199.84 379.86 170.6 383.26 166.82C383.355 166.732 383.427 166.624 383.478 166.504C383.525 166.384 383.547 166.255 383.54 166.126C383.536 165.997 383.5 165.871 383.442 165.756C383.384 165.641 383.3 165.54 383.198 165.46ZM340.22 189.46C323.22 200.68 317.48 203.96 317.28 204.1C320.02 199.92 337.04 176.6 339.96 171.02C340.01 170.912 340.037 170.795 340.037 170.675C340.037 170.557 340.008 170.439 339.957 170.332C339.905 170.223 339.83 170.13 339.737 170.055C339.645 169.98 339.537 169.927 339.42 169.9C337.42 169.18 322.86 167.62 319.42 166.4C319.86 162.68 338.02 134.56 340.22 133.44C342.42 132.32 363.76 134.86 367.762 137.72C365.66 141.82 354.06 156.18 352.18 159.52C351.8 160.2 351.68 160.86 352.42 161.04C353.16 161.22 371.958 163.42 376.06 164.76C371.06 168.94 345.82 185.7 340.22 189.38V189.46ZM211.92 67.18C211.92 67.36 212.04 67.58 212.34 68.74C212.418 68.9916 212.592 69.2029 212.823 69.3298C213.053 69.4563 213.325 69.4887 213.58 69.42C213.835 69.3458 214.05 69.1734 214.177 68.9407C214.305 68.7083 214.335 68.4345 214.26 68.18C214.06 67.4 213.88 66.74 213.76 66.42C213.643 66.2003 213.45 66.032 213.215 65.948C212.982 65.8636 212.725 65.8694 212.495 65.9643C212.265 66.0592 212.078 66.2363 211.973 66.4611C211.867 66.6858 211.847 66.9422 211.92 67.18Z" fill="#A7D129"/>
</svg>
