<svg width="632" height="509" viewBox="0 0 632 509" fill="none" xmlns="http://www.w3.org/2000/svg">
<path fill-rule="evenodd" clip-rule="evenodd" d="M420.35 38.3112C420.962 28.9448 420.256 19.4932 418.259 10.3217L418.216 10.1263L418.216 10.126C417.877 8.57531 417.529 6.98025 417.841 5.42829C418.532 1.99582 422.344 -0.0702347 425.845 0.00182515C429.345 0.073885 432.588 1.74489 435.686 3.37676C450.541 11.2026 465.665 19.2261 477.361 31.2729C477.728 41.0257 475.43 50.6503 473.161 60.1514L472.948 61.0444C463.475 100.755 455.719 140.876 449.707 181.256C449.13 185.126 448.038 189.692 444.367 191.047C441.734 192.02 438.672 190.777 436.801 188.684C434.93 186.591 434.036 183.813 433.412 181.076C431.873 174.323 431.688 167.265 432.871 160.441C433.594 156.268 434.816 152.209 436.039 148.149L436.04 148.148L436.04 148.148L436.04 148.148L436.04 148.147L436.04 148.147L436.04 148.147L436.04 148.146C437.138 144.502 438.236 140.857 438.973 137.127C439.71 133.398 440.082 129.606 440.443 125.821C442.36 105.694 443.986 85.5395 445.321 65.3655C445.509 62.5147 445.681 59.5743 444.747 56.8741C443.086 52.0717 438.248 49.0363 433.361 47.6446C432.518 47.4047 431.663 47.2006 430.807 46.9967C428.816 46.5219 426.826 46.0475 425.009 45.122C422.413 43.799 420.16 41.2195 420.35 38.3112ZM429.427 37.5414C436.335 38.9992 443.086 41.2005 449.526 44.095C450.823 44.6777 452.187 45.36 452.887 46.597C453.459 47.6073 453.492 48.824 453.509 49.985C453.712 63.6203 453.755 77.2917 452.311 90.8518C451.446 98.9717 450.051 107.021 448.657 115.069C448.215 117.616 447.774 120.164 447.349 122.713C445.248 135.33 443.557 148.014 442.28 160.74C441.353 169.974 440.674 179.518 443.546 188.342C445.02 188.073 445.587 186.298 445.866 184.826L472.41 44.9186C473.053 41.5288 473.695 38.0241 472.938 34.658C471.611 28.7649 466.38 24.6673 461.337 21.3425C451.629 14.942 441.295 9.49072 430.531 5.09173C429.635 15.8818 429.267 26.7155 429.427 37.5414ZM443.077 129.426C447.937 104.476 450.133 79.0069 449.615 53.5926C449.576 51.6731 449.472 49.6103 448.298 48.0912C447.438 46.9781 446.124 46.3261 444.84 45.751C440.018 43.5913 434.949 41.9841 429.763 40.9712C428.263 40.678 426.056 40.9957 426.122 42.5236L444.76 50.2252C445.853 50.677 447.018 51.1879 447.635 52.1966C448.241 53.186 448.182 54.4288 448.103 55.5863L443.077 129.426ZM425.734 2.62371C424.197 1.60511 421.977 2.65511 421.121 4.28784C420.265 5.92057 420.396 7.87517 420.59 9.70839C420.874 12.3981 421.249 15.0892 421.624 17.7807C422.663 25.248 423.703 32.7182 422.82 40.1699C424.229 40.6536 425.803 39.6602 426.486 38.3361C427.17 37.012 427.188 35.4566 427.19 33.9664L427.238 7.09445C427.24 5.45211 427.102 3.53119 425.734 2.62371ZM439.534 187.736C438.688 181.095 438.466 174.375 438.873 167.693C439.09 164.12 439.486 160.559 439.883 156.999L439.883 156.999C440.407 152.291 440.931 147.585 441.041 142.852C437.17 154.374 435.708 166.699 436.777 178.806C437.055 181.955 437.57 185.258 439.534 187.736ZM441.664 136.046C442.287 135.767 442.549 134.892 442.181 134.317C441.549 134.629 441.28 135.512 441.632 136.123L441.664 136.046ZM435.876 78.3422C405.07 59.3437 370.237 47.961 335.402 38.139C324.266 34.9991 313.037 31.9905 301.539 30.7024C267.471 26.8857 232.933 38.6403 204.605 57.9474C193.244 65.6907 182.282 75.2153 177.374 88.0581C173.732 97.587 173.757 108.077 174.108 118.272C175.32 153.434 179.831 188.389 184.338 223.282C187.861 222.646 188.209 217.773 187.699 214.23C183.013 181.69 180.386 148.853 179.838 115.982C179.684 106.765 179.732 97.3148 182.922 88.6655C188.697 73.0084 203.59 62.7687 218.203 54.7103C236.609 44.5605 256.617 36.0284 277.631 35.5755C303.086 35.0269 327.214 46.3181 349.45 58.7189C361.847 65.6324 374.416 73.3526 382.303 85.1544C389.464 95.8707 392.066 108.931 393.945 121.682C399.908 162.151 400.127 203.22 400.334 244.126C400.342 245.781 400.241 247.677 398.945 248.706C398.058 249.409 396.848 249.497 395.718 249.556L354.19 251.718C373.541 257.281 395.008 255.087 412.833 245.723L458.976 221.482C463.283 219.22 467.728 216.843 470.697 212.989C474.782 207.685 475.367 200.549 475.559 193.857C476.271 169.14 473.8 144.334 468.225 120.244C470.158 146.304 470.426 172.487 469.027 198.581C468.789 203.037 468.431 207.712 466.008 211.459C463.42 215.462 458.92 217.729 454.633 219.812L404.835 244.016C406.896 205.323 405.298 166.437 400.068 128.045C398.309 115.132 396.065 102.038 390.156 90.4228C376.19 62.973 345.28 49.3945 316.712 37.8886C359.423 50.3842 402.621 63.0864 441.046 85.5342C441.546 82.433 438.55 79.9911 435.876 78.3422ZM595.023 196.451C597.236 202.157 600.349 208.24 606.071 210.415C607.426 210.52 608.235 208.722 607.791 207.438C607.419 206.365 606.546 205.584 605.688 204.816L605.687 204.816C605.59 204.729 605.494 204.643 605.398 204.556C605.327 204.492 605.256 204.427 605.186 204.362C601.545 200.979 599.758 196.198 597.997 191.489L597.996 191.485C597.648 190.555 597.302 189.628 596.942 188.714C594.76 183.176 591.341 177.391 585.623 175.736C582.1 174.717 578.33 175.477 574.774 176.374C554.685 181.443 535.699 190.838 519.484 203.735C512.43 209.345 505.293 217.299 506.975 226.153C507.611 229.497 509.465 232.466 511.335 235.31C514.894 240.721 518.643 246.008 522.572 251.157C524.291 253.409 526.1 255.685 528.528 257.144C532.638 259.615 537.805 259.346 542.537 258.564C566.989 254.522 587.916 239.326 607.831 224.573C608.867 223.805 609.945 222.987 610.482 221.815C611.019 220.642 610.79 219.01 609.651 218.405C608.346 217.711 606.805 218.669 605.641 219.581C587.109 234.09 567.314 248.267 544.337 253.364C539.981 254.33 535.18 254.899 531.261 252.766C528.329 251.171 526.349 248.302 524.479 245.536L512.888 228.385C511.912 226.941 510.899 225.388 510.863 223.645C510.827 221.902 512.236 220.016 513.965 220.241C530.213 222.354 546.538 223.873 562.896 224.794C564.199 224.867 565.561 224.926 566.747 224.384C568.276 223.686 569.208 222.14 570.023 220.671C576.948 208.186 582.239 194.795 585.716 180.948C590.338 184.263 592.495 189.877 594.553 195.234C594.71 195.641 594.866 196.048 595.023 196.451ZM580.722 179.852C577.627 191.433 573.048 202.616 567.132 213.041C566.14 214.789 565.039 216.589 563.305 217.604C561.099 218.896 558.354 218.653 555.813 218.369L515.34 213.853C522.055 204.98 532.03 199.221 541.997 194.273C551.432 189.589 561.117 185.411 570.998 181.762C574.126 180.607 577.407 179.488 580.722 179.852ZM357.083 426.884C358.082 436.301 359.134 445.917 363.136 454.5L356.586 396.196C356.316 393.796 356.396 390.741 358.604 389.762C360.472 411.708 363.257 433.575 366.95 455.288C367.388 457.865 363.517 459.338 361.342 457.886C359.167 456.434 358.472 453.607 357.977 451.04C354.374 432.33 352.393 413.307 352.063 394.256C347.476 395.16 344.258 399.607 343.33 404.19C342.402 408.773 343.297 413.505 344.191 418.095L352.822 462.414C354.168 469.324 355.513 476.464 354.028 483.345C348.318 457.274 343.727 430.959 340.273 404.495C296.459 431.287 240.004 436.269 192.175 417.565C181.729 413.48 171.355 408.066 164.455 399.223C159.02 392.256 156.12 383.607 154.601 374.903C149.205 343.99 160.262 312.458 175.271 284.9C175.662 284.183 176.056 283.464 176.452 282.742L176.452 282.742L176.453 282.741L176.453 282.741L176.453 282.74C181.824 272.943 187.421 262.736 186.993 251.655C186.964 250.923 186.913 250.176 186.861 249.425C186.623 245.976 186.379 242.428 188.343 239.694C190.978 244.487 191.982 250.159 191.151 255.566C236.51 253.614 281.936 253.22 327.322 254.387C327.852 256.474 324.829 257.443 322.676 257.411C280.321 256.779 237.946 257.501 195.637 259.574C194.297 259.64 192.891 259.727 191.755 260.441C190.56 261.191 189.864 262.508 189.221 263.764C177.214 287.259 165.166 311.096 159.362 336.836C156.377 350.072 155.234 364.559 161.352 376.671C163.672 381.265 166.955 385.323 170.619 388.938C190.294 408.344 219.755 414.293 247.385 413.829C265.02 413.533 282.616 410.997 299.617 406.304C317.641 401.328 335.617 393.485 347.919 379.404C355.144 371.135 360.054 361.122 364.354 351.018C372.565 331.727 378.863 311.622 383.126 291.094C385.795 291.656 385.833 295.43 385.217 298.087C377.596 330.963 368.738 366.006 343.638 388.564C320.968 408.938 289.023 415.257 258.591 416.961C241.013 417.945 223.156 417.638 206.13 413.156C189.103 408.675 172.846 399.711 162.036 385.813C165.189 397.834 175.868 406.413 186.986 411.964C216.178 426.541 250.65 425.771 282.883 420.704C304.354 417.328 326.393 411.789 343.103 397.889C357.387 386.008 366.489 369.04 373.341 351.77C380.925 332.655 386.186 312.618 388.971 292.243C390.706 291.147 391.991 294.212 391.772 296.252C388.015 331.173 374.636 365.009 353.495 393.055L357.083 426.884ZM336.782 486.599C334.92 483.454 333.72 479.918 333.286 476.288L330.609 485.357L323.856 459.6C323.332 457.602 322.057 455.102 320.036 455.531C318.072 455.948 317.852 458.644 318.144 460.631C319.615 470.623 322.422 480.417 326.465 489.673L319.282 483.37C318.933 486.371 319.723 489.49 321.458 491.962C317.717 489.207 312.699 488.268 308.215 489.484C311.419 493.936 315.769 497.556 320.73 499.898L314.661 491.427C319.567 494.258 324.706 496.685 330.01 498.673L324.867 492.225L331.221 493.986C326.359 482.926 321.407 471.444 321.524 459.364C323.365 469.191 326.058 478.859 329.566 488.222C330.16 489.809 330.82 491.45 332.086 492.575C333.353 493.701 335.41 494.125 336.736 493.071C337.768 492.252 338.069 490.838 338.302 489.542L341.164 473.672L344.307 493.353C346.69 487.334 354.441 485.825 360.914 485.785C369.463 485.732 378.075 486.673 386.665 487.613H386.666H386.666H386.666H386.666H386.667H386.667H386.667H386.667C402.153 489.306 417.566 490.991 432.404 486.826C431.968 489.12 431.206 491.352 430.147 493.433C442.12 491.69 454.234 490.925 466.331 491.149C471.44 491.243 476.564 491.512 481.688 491.781H481.688H481.689H481.689H481.689H481.69H481.69H481.691H481.691C495.238 492.492 508.785 493.203 522.057 490.687L433.967 489.913C435.622 489.817 436.89 487.893 436.326 486.335C435.762 484.777 433.557 484.11 432.224 485.094C431.357 482.34 427.463 481.115 425.176 482.878C426.502 478.79 429.124 475.134 432.57 472.566C428.681 472.357 424.73 473.548 421.604 475.872L431.079 432.02C430.278 431.331 428.942 431.794 428.35 432.67C427.764 433.536 427.699 434.639 427.637 435.684L427.635 435.717C426.748 450.691 421.468 465.378 412.618 477.489L409.142 467.434L404.161 479.444C401.904 477.696 398.702 477.255 396.056 478.328C396.732 480.896 398.786 483.056 401.317 483.86L402.495 480.702L410.277 485.914C407.303 482.798 406.658 477.699 408.763 473.94L413.472 481.839L422.599 463.787C422.651 471.035 419.544 477.886 416.499 484.463C419.809 481.871 422.653 478.688 424.858 475.109C426.986 478.878 424.662 483.931 420.96 486.175C417.259 488.418 412.682 488.54 408.357 488.357C401.759 488.078 395.111 487.25 388.471 486.422L388.471 486.422C373.559 484.563 358.688 482.709 344.523 487.1L342.481 468.266C339.361 473.904 337.408 480.185 336.782 486.599ZM425.656 487.102C425.336 486.719 425.338 486.105 425.661 485.725L425.918 485.822C426.35 484.787 428.17 484.872 428.504 485.943C427.665 486.548 426.679 486.949 425.656 487.102ZM473.783 287C463.524 281.815 451.315 283.214 439.926 284.775C436.708 285.216 433.427 285.679 430.512 287.112C427.598 288.545 425.059 291.14 424.556 294.349C396.743 290.876 370.09 278.634 349.333 259.797C344.828 255.709 340.231 249.887 342.257 244.151C342.894 242.348 344.133 240.827 345.422 239.414C355.099 228.804 368.441 222.423 381.43 216.298C366.709 217.589 352.584 224.749 342.841 235.86C340.608 238.406 338.55 241.251 337.781 244.549C335.882 252.693 342.207 260.333 348.538 265.797C368.737 283.23 394.144 294.551 420.614 297.913C422.201 298.115 422.283 300.347 422.138 301.94C421.493 309.028 425.357 315.945 430.712 320.634C436.067 325.322 442.775 328.137 449.43 330.658C470.042 338.465 491.433 344.216 513.182 347.795C514.619 348.032 516.592 347.92 516.895 346.495C511.876 343.175 505.836 341.91 499.929 340.673L499.907 340.669L499.841 340.655L499.352 340.552L498.973 340.473C483.998 337.32 469.223 333.214 454.769 328.188C448.839 326.126 442.894 323.874 437.724 320.313C432.553 316.751 428.162 311.72 426.509 305.664C425.692 302.673 426.8 298.208 429.878 298.585C442.408 300.117 455.283 301.63 467.518 298.522C470.286 297.819 473.173 296.758 474.86 294.453C476.548 292.148 476.332 288.289 473.783 287ZM442.176 295.281C437.875 294.54 433.481 294.342 429.13 294.692C431.244 290.677 436.408 289.62 440.904 289.007C450.677 287.677 460.854 286.379 470.217 289.477C470.835 289.682 471.496 289.943 471.83 290.502C472.271 291.238 471.949 292.24 471.323 292.826C470.697 293.413 469.844 293.679 469.018 293.91C460.319 296.341 451.078 296.813 442.176 295.281ZM299.844 497.857C307.042 497.655 314.284 499.247 320.735 502.447C319.011 504.925 315.545 505.272 312.528 505.387L233.678 508.379C232.956 508.29 232.82 507.174 233.331 506.656C233.843 506.138 234.644 506.072 235.371 506.036L312.344 502.282C307.896 501.874 303.557 500.338 299.844 497.857ZM148.1 237.083C146.976 242.457 151.523 248.19 156.998 248.596C148.045 262.089 131.918 268.747 116.422 273.448C106.751 276.381 96.0234 278.79 86.8039 274.651C85.6597 275.35 86.8798 277.072 88.0878 277.654C97.0598 281.977 107.697 279.568 117.24 276.72C131.236 272.543 145.662 267.145 155.186 256.071C155.575 255.618 155.963 255.152 156.354 254.682L156.355 254.682L156.355 254.681L156.355 254.681C158.806 251.735 161.362 248.663 165.048 247.981C176.912 245.787 186.794 238.356 196.559 231.013L196.559 231.012L196.56 231.012L196.56 231.011L196.561 231.011C198.775 229.346 200.983 227.685 203.207 226.092C216.726 216.402 231.721 208.774 247.514 203.554C248.909 203.092 250.605 202.237 250.481 200.773C230.901 202.57 213.786 214.246 198.005 225.975L197.478 226.367C186.753 234.34 175.546 242.672 162.349 244.648C166.659 241.248 165.749 233.392 160.886 230.845C156.022 228.298 149.224 231.709 148.1 237.083ZM151.754 240.367C150.874 237.76 152.232 234.659 154.646 233.339C155.331 232.964 156.098 232.714 156.879 232.713C159.457 232.711 161.339 235.468 161.356 238.046C161.373 240.624 160.067 243.001 158.797 245.245C155.826 244.79 152.715 243.214 151.754 240.367ZM444.745 182.925C444.016 182.112 444.24 181.018 444.472 179.884C444.636 179.083 444.805 178.262 444.643 177.508C444.503 176.853 444.121 176.296 443.738 175.737C443.4 175.242 443.06 174.746 442.886 174.18C442.925 173.432 443.926 173.048 444.607 173.359C445.289 173.669 445.671 174.401 445.909 175.111C446.777 177.703 446.331 180.699 444.745 182.925ZM378.739 126.051C380.563 121.726 384.18 117.89 388.792 117.012C390.284 116.728 390.238 114.267 388.93 113.494C387.623 112.72 385.943 113.178 384.571 113.83C378.182 116.872 374.148 123.566 372.568 130.463C370.987 137.361 371.51 144.544 372.041 151.6L374.866 189.107C374.962 190.382 375.079 191.721 375.789 192.785C377.236 194.951 380.337 195.019 382.937 194.854L396.095 194.018C393.171 191.726 389.246 190.762 385.592 191.436C383.459 191.831 381.315 190.423 380.185 188.571C379.054 186.719 378.723 184.503 378.443 182.352C376.609 168.276 375.936 154.049 376.434 139.862C376.598 135.171 376.914 130.376 378.739 126.051ZM412.335 458.97C411.588 459.512 410.839 458.277 410.73 457.36C405.645 414.618 404.878 371.493 404.117 328.456L403.604 299.443C403.589 298.616 403.601 297.711 404.132 297.078C405.047 295.987 406.97 296.487 407.768 297.665C408.567 298.842 408.568 300.367 408.542 301.79C407.759 344.141 408.273 386.574 412.328 428.738C412.377 429.251 412.427 429.764 412.477 430.278C413.406 439.856 414.35 449.578 412.335 458.97ZM370.061 189.546C368.947 188.934 367.573 189.28 366.354 189.641C309.982 206.313 253.739 223.505 198.324 243.127C197.287 243.494 196.1 244.023 195.862 245.098C195.61 246.235 196.681 247.322 197.827 247.533C198.974 247.744 200.133 247.335 201.227 246.932C256.761 226.503 313.132 208.346 370.15 192.522C371.374 192.182 371.174 190.157 370.061 189.546Z" fill="#00160A"/>
<path fill-rule="evenodd" clip-rule="evenodd" d="M570.908 444.586C569.596 445.162 568.175 445.699 566.762 445.456C565.349 445.213 564.028 443.887 564.312 442.482C566.906 429.634 563.648 415.723 555.62 405.363C552.806 401.732 549.457 398.537 546.715 394.852C544.987 392.53 543.451 389.609 544.327 386.851C545.574 382.925 550.595 381.971 554.704 381.69C564.256 381.039 573.808 380.388 583.361 379.737C587.762 379.437 592.831 379.393 595.769 382.684C603.948 391.845 619.89 392.46 628.75 383.956C630.121 382.64 631.848 385.26 631.793 387.16C631.622 393.133 629.161 399.011 625.025 403.324C624.049 404.342 622.801 405.339 621.399 405.193C619.997 405.047 618.963 403.033 620.081 402.174C622.479 400.332 624.922 398.443 626.604 395.93C628.285 393.416 629.101 390.12 627.954 387.322C621.784 395.128 615.554 402.887 609.266 410.599C598.364 423.97 586.704 437.647 570.908 444.586M588.138 405.239C586.569 405.673 584.895 405.34 583.328 404.897C572.054 401.711 561.667 392.902 550.134 394.964C563.581 405.794 570.721 423.953 568.251 441.042C577.112 439.145 584.109 432.53 590.384 425.994C599.673 416.319 608.492 406.194 616.802 395.667C610.829 395.618 604.879 393.895 599.804 390.745C593.535 392.296 594.363 403.517 588.138 405.239M596.326 387.452C592.591 383.049 585.879 383.185 580.128 383.69C572.626 384.349 565.124 385.008 557.622 385.667C554.576 385.934 551.078 386.469 549.49 389.082C562.474 391.8 575.133 396.069 587.111 401.77C588.652 396.931 591.74 392.598 595.811 389.561C596.269 389.22 596.793 388.782 596.732 388.214C596.701 387.923 596.515 387.675 596.326 387.452V387.452Z" fill="black"/>
<path fill-rule="evenodd" clip-rule="evenodd" d="M40.1506 282.456C28.8513 277.937 15.386 279.277 5.19902 285.934C4.2128 286.579 2.79489 285.86 2.30666 284.788C1.81844 283.716 2.00106 282.468 2.25079 281.317C5.50431 266.317 18.4654 254.84 32.8792 249.566C47.2931 244.291 63.0594 244.277 78.3815 245.178C79.9018 245.268 81.4909 245.387 82.7877 246.185C84.0846 246.984 84.9571 248.691 84.3107 250.07C78.2834 262.928 73.7431 276.482 70.8091 290.377C70.3333 292.63 68.003 294.125 65.708 294.312C63.413 294.5 61.1642 293.652 59.0814 292.67C52.5904 289.609 46.8139 285.12 40.1506 282.456M41.4422 267.278C40.4352 268.097 38.8612 267.664 37.9136 266.778C36.9661 265.892 36.4262 264.665 35.6813 263.603C31.6862 257.904 22.5181 258.377 17.0838 262.725C11.6494 267.073 9.0197 273.944 6.62505 280.479C22.5682 273.554 42.2049 276.039 55.9202 286.717C57.7928 288.175 59.6509 289.818 61.9568 290.379C64.2627 290.94 67.1676 289.932 67.7517 287.632C70.872 275.343 74.717 263.239 79.2603 251.402C70.5429 262.238 52.2358 258.509 41.4422 267.278M37.973 260.73C38.8683 261.855 40.4938 262.153 41.9089 261.9C43.3239 261.646 44.6095 260.941 45.928 260.368C50.4674 258.395 55.4951 257.954 60.3618 257.052C65.2285 256.15 70.2482 254.623 73.6742 251.051C65.9443 251.027 58.2144 251.004 50.4845 250.981C42.7162 250.957 34.3451 251.122 28.1044 255.748C31.9034 255.887 35.6055 257.756 37.973 260.73Z" fill="black"/>
<path fill-rule="evenodd" clip-rule="evenodd" d="M403.17 281.419C403.151 274.62 403.133 267.821 403.115 261.022C403.11 259.069 403.104 257.117 403.099 255.164C403.096 253.817 403.321 252.133 404.601 251.714C405.569 251.397 406.634 252.093 407.087 253.005C407.54 253.917 407.534 254.981 407.519 255.999C407.378 265.487 407.236 274.976 407.095 284.464C407.075 285.828 406.846 287.507 405.568 287.986C403.438 286.779 403.176 283.868 403.17 281.419H403.17Z" fill="#00160A"/>
<path fill-rule="evenodd" clip-rule="evenodd" d="M389.595 275.127C388.611 275.559 388.104 273.937 388.256 272.873C388.8 269.066 389.346 265.25 390.272 261.517C390.848 259.193 391.679 256.748 393.599 255.317C395.518 253.885 398.814 254.136 399.753 256.338C400.208 257.405 400.019 258.624 399.81 259.765C398.518 266.828 396.777 273.81 394.602 280.653C394.51 280.943 394.409 281.246 394.189 281.457C393.654 281.97 392.689 281.625 392.318 280.983C391.947 280.341 391.995 279.55 392.055 278.811C392.938 278.746 393.35 277.706 393.563 276.846C394.429 273.332 395.296 269.819 396.163 266.305C396.837 263.571 397.453 260.457 395.883 258.119C394.271 259.112 393.665 261.12 393.185 262.952C392.22 266.637 391.254 270.322 390.289 274.007C390.174 274.447 390.012 274.944 389.595 275.127L389.595 275.127Z" fill="#00160A"/>
</svg>
