<svg width="800" height="800" viewBox="0 0 800 800" fill="none" xmlns="http://www.w3.org/2000/svg">
<rect x="400" y="600" width="200" height="200" transform="rotate(-90 400 600)" fill="#8EB5F0"/>
<path d="M400 500C455.228 500 500 455.228 500 400H400V500Z" fill="#E1EBFB"/>
<path d="M600 500C544.772 500 500 455.228 500 400H600V500Z" fill="#546EF3"/>
<path d="M400 500C455.228 500 500 544.772 500 600H400V500Z" fill="#E1EBFB"/>
<path d="M600 500C544.772 500 500 544.772 500 600H600V500Z" fill="#546EF3"/>
<rect width="200" height="200" transform="matrix(0 -1 -1 0 800 600)" fill="#8EB5F0"/>
<path d="M800 400C800 426.264 794.827 452.272 784.776 476.537C774.725 500.802 759.993 522.85 741.421 541.421C722.85 559.993 700.802 574.725 676.537 584.776C652.272 594.827 626.264 600 600 600L600 400H800Z" fill="#1E1E1E"/>
<path d="M700 400C700 413.132 697.413 426.136 692.388 438.268C687.362 450.401 679.997 461.425 670.711 470.711C661.425 479.997 650.401 487.362 638.268 492.388C626.136 497.413 613.132 500 600 500L600 400H700Z" fill="#546EF3"/>
<rect width="200" height="200" transform="matrix(-1 0 0 1 600 600)" fill="#8EB5F0"/>
<path d="M600 700C600 755.228 555.228 800 500 800V600C555.228 600 600 644.772 600 700Z" fill="#546EF3"/>
<path d="M400 700C400 755.228 444.772 800 500 800L500 600C444.772 600 400 644.772 400 700Z" fill="#E1EBFB"/>
<rect width="200" height="200" transform="matrix(0 -1 -1 0 800 800)" fill="#8EB5F0"/>
<path d="M600 800V775L625 800H600Z" fill="#1E1E1E"/>
<path d="M625 800V775L650 800H625Z" fill="#1E1E1E"/>
<path d="M650 800V775L675 800H650Z" fill="#1E1E1E"/>
<path d="M675 800V775L700 800H675Z" fill="#1E1E1E"/>
<path d="M700 800V775L725 800H700Z" fill="#1E1E1E"/>
<path d="M725 800V775L750 800H725Z" fill="#1E1E1E"/>
<path d="M750 800V775L775 800H750Z" fill="#1E1E1E"/>
<path d="M775 800V775L800 800H775Z" fill="#1E1E1E"/>
<path d="M600 775V750L625 775H600Z" fill="#1E1E1E"/>
<path d="M625 775V750L650 775H625Z" fill="#1E1E1E"/>
<path d="M650 775V750L675 775H650Z" fill="#1E1E1E"/>
<path d="M675 775V750L700 775H675Z" fill="#1E1E1E"/>
<path d="M700 775V750L725 775H700Z" fill="#1E1E1E"/>
<path d="M725 775V750L750 775H725Z" fill="#1E1E1E"/>
<path d="M750 775V750L775 775H750Z" fill="#1E1E1E"/>
<path d="M775 775V750L800 775H775Z" fill="#1E1E1E"/>
<path d="M600 750V725L625 750H600Z" fill="#1E1E1E"/>
<path d="M625 750V725L650 750H625Z" fill="#1E1E1E"/>
<path d="M650 750V725L675 750H650Z" fill="#1E1E1E"/>
<path d="M675 750V725L700 750H675Z" fill="#1E1E1E"/>
<path d="M700 750V725L725 750H700Z" fill="#1E1E1E"/>
<path d="M725 750V725L750 750H725Z" fill="#1E1E1E"/>
<path d="M750 750V725L775 750H750Z" fill="#1E1E1E"/>
<path d="M775 750V725L800 750H775Z" fill="#1E1E1E"/>
<path d="M600 725V700L625 725H600Z" fill="#1E1E1E"/>
<path d="M625 725V700L650 725H625Z" fill="#1E1E1E"/>
<path d="M650 725V700L675 725H650Z" fill="#1E1E1E"/>
<path d="M675 725V700L700 725H675Z" fill="#1E1E1E"/>
<path d="M700 725V700L725 725H700Z" fill="#1E1E1E"/>
<path d="M725 725V700L750 725H725Z" fill="#1E1E1E"/>
<path d="M750 725V700L775 725H750Z" fill="#1E1E1E"/>
<path d="M775 725V700L800 725H775Z" fill="#1E1E1E"/>
<path d="M600 700V675L625 700H600Z" fill="#1E1E1E"/>
<path d="M625 700V675L650 700H625Z" fill="#1E1E1E"/>
<path d="M650 700V675L675 700H650Z" fill="#1E1E1E"/>
<path d="M675 700V675L700 700H675Z" fill="#1E1E1E"/>
<path d="M700 700V675L725 700H700Z" fill="#1E1E1E"/>
<path d="M725 700V675L750 700H725Z" fill="#1E1E1E"/>
<path d="M750 700V675L775 700H750Z" fill="#1E1E1E"/>
<path d="M775 700V675L800 700H775Z" fill="#1E1E1E"/>
<path d="M600 675V650L625 675H600Z" fill="#1E1E1E"/>
<path d="M625 675V650L650 675H625Z" fill="#1E1E1E"/>
<path d="M650 675V650L675 675H650Z" fill="#1E1E1E"/>
<path d="M675 675V650L700 675H675Z" fill="#1E1E1E"/>
<path d="M700 675V650L725 675H700Z" fill="#1E1E1E"/>
<path d="M725 675V650L750 675H725Z" fill="#1E1E1E"/>
<path d="M750 675V650L775 675H750Z" fill="#1E1E1E"/>
<path d="M775 675V650L800 675H775Z" fill="#1E1E1E"/>
<path d="M600 650V625L625 650H600Z" fill="#1E1E1E"/>
<path d="M625 650V625L650 650H625Z" fill="#1E1E1E"/>
<path d="M650 650V625L675 650H650Z" fill="#1E1E1E"/>
<path d="M675 650V625L700 650H675Z" fill="#1E1E1E"/>
<path d="M700 650V625L725 650H700Z" fill="#1E1E1E"/>
<path d="M725 650V625L750 650H725Z" fill="#1E1E1E"/>
<path d="M750 650V625L775 650H750Z" fill="#1E1E1E"/>
<path d="M775 650V625L800 650H775Z" fill="#1E1E1E"/>
<path d="M600 625V600L625 625H600Z" fill="#1E1E1E"/>
<path d="M625 625V600L650 625H625Z" fill="#1E1E1E"/>
<path d="M650 625V600L675 625H650Z" fill="#1E1E1E"/>
<path d="M675 625V600L700 625H675Z" fill="#1E1E1E"/>
<path d="M700 625V600L725 625H700Z" fill="#1E1E1E"/>
<path d="M725 625V600L750 625H725Z" fill="#1E1E1E"/>
<path d="M750 625V600L775 625H750Z" fill="#1E1E1E"/>
<path d="M775 625V600L800 625H775Z" fill="#1E1E1E"/>
<rect x="400" y="200" width="200" height="200" transform="rotate(90 400 200)" fill="#8EB5F0"/>
<path d="M400 300C344.772 300 300 344.772 300 400L400 400L400 300Z" fill="#E1EBFB"/>
<path d="M200 300C255.228 300 300 344.772 300 400L200 400L200 300Z" fill="#546EF3"/>
<path d="M400 300C344.772 300 300 255.228 300 200L400 200L400 300Z" fill="#E1EBFB"/>
<path d="M200 300C255.228 300 300 255.228 300 200L200 200L200 300Z" fill="#546EF3"/>
<rect width="200" height="200" transform="matrix(8.74228e-08 1 1 -8.74228e-08 0 200)" fill="#8EB5F0"/>
<path d="M2.22577e-06 400C-7.03384e-08 373.736 5.17315 347.728 15.2241 323.463C25.275 299.198 40.0069 277.15 58.5786 258.579C77.1504 240.007 99.1982 225.275 123.463 215.224C147.728 205.173 173.736 200 200 200L200 400L2.22577e-06 400Z" fill="#1E1E1E"/>
<path d="M100 400C100 386.868 102.587 373.864 107.612 361.732C112.638 349.599 120.003 338.575 129.289 329.289C138.575 320.003 149.599 312.638 161.732 307.612C173.864 302.587 186.868 300 200 300L200 400L100 400Z" fill="#546EF3"/>
<rect width="200" height="200" transform="matrix(1 -8.74228e-08 -8.74228e-08 -1 200 200)" fill="#8EB5F0"/>
<path d="M200 100C200 44.7715 244.772 -3.91405e-06 300 -8.74228e-06L300 200C244.772 200 200 155.228 200 100Z" fill="#546EF3"/>
<path d="M400 100C400 44.7715 355.228 3.91405e-06 300 8.74228e-06L300 200C355.228 200 400 155.228 400 100Z" fill="#E1EBFB"/>
<rect width="200" height="200" transform="matrix(8.74228e-08 1 1 -8.74228e-08 0 0)" fill="#8EB5F0"/>
<path d="M200 -2.18557e-06L200 25L175 0L200 -2.18557e-06Z" fill="#1E1E1E"/>
<path d="M175 -2.18557e-06L175 25L150 0L175 -2.18557e-06Z" fill="#1E1E1E"/>
<path d="M150 -2.18557e-06L150 25L125 0L150 -2.18557e-06Z" fill="#1E1E1E"/>
<path d="M125 -2.18557e-06L125 25L100 0L125 -2.18557e-06Z" fill="#1E1E1E"/>
<path d="M100 -2.18557e-06L100 25L75 0L100 -2.18557e-06Z" fill="#1E1E1E"/>
<path d="M75 -2.18557e-06L75 25L50 0L75 -2.18557e-06Z" fill="#1E1E1E"/>
<path d="M50 -2.18557e-06L50 25L25 0L50 -2.18557e-06Z" fill="#1E1E1E"/>
<path d="M25 -2.18557e-06L25 25L0 0L25 -2.18557e-06Z" fill="#1E1E1E"/>
<path d="M200 25L200 50L175 25L200 25Z" fill="#1E1E1E"/>
<path d="M175 25L175 50L150 25L175 25Z" fill="#1E1E1E"/>
<path d="M150 25L150 50L125 25L150 25Z" fill="#1E1E1E"/>
<path d="M125 25L125 50L100 25L125 25Z" fill="#1E1E1E"/>
<path d="M100 25L100 50L75 25L100 25Z" fill="#1E1E1E"/>
<path d="M75 25L75 50L50 25L75 25Z" fill="#1E1E1E"/>
<path d="M50 25L50 50L25 25L50 25Z" fill="#1E1E1E"/>
<path d="M25 25L25 50L0 25L25 25Z" fill="#1E1E1E"/>
<path d="M200 50L200 75L175 50L200 50Z" fill="#1E1E1E"/>
<path d="M175 50L175 75L150 50L175 50Z" fill="#1E1E1E"/>
<path d="M150 50L150 75L125 50L150 50Z" fill="#1E1E1E"/>
<path d="M125 50L125 75L100 50L125 50Z" fill="#1E1E1E"/>
<path d="M100 50L100 75L75 50L100 50Z" fill="#1E1E1E"/>
<path d="M75 50L75 75L50 50L75 50Z" fill="#1E1E1E"/>
<path d="M50 50L50 75L25 50L50 50Z" fill="#1E1E1E"/>
<path d="M25 50L25 75L0 50L25 50Z" fill="#1E1E1E"/>
<path d="M200 75L200 100L175 75L200 75Z" fill="#1E1E1E"/>
<path d="M175 75L175 100L150 75L175 75Z" fill="#1E1E1E"/>
<path d="M150 75L150 100L125 75L150 75Z" fill="#1E1E1E"/>
<path d="M125 75L125 100L100 75L125 75Z" fill="#1E1E1E"/>
<path d="M100 75L100 100L75 75L100 75Z" fill="#1E1E1E"/>
<path d="M75 75L75 100L50 75L75 75Z" fill="#1E1E1E"/>
<path d="M50 75L50 100L25 75L50 75Z" fill="#1E1E1E"/>
<path d="M25 75L25 100L0 75L25 75Z" fill="#1E1E1E"/>
<path d="M200 100L200 125L175 100L200 100Z" fill="#1E1E1E"/>
<path d="M175 100L175 125L150 100L175 100Z" fill="#1E1E1E"/>
<path d="M150 100L150 125L125 100L150 100Z" fill="#1E1E1E"/>
<path d="M125 100L125 125L100 100L125 100Z" fill="#1E1E1E"/>
<path d="M100 100L100 125L75 100L100 100Z" fill="#1E1E1E"/>
<path d="M75 100L75 125L50 100L75 100Z" fill="#1E1E1E"/>
<path d="M50 100L50 125L25 100L50 100Z" fill="#1E1E1E"/>
<path d="M25 100L25 125L0 100L25 100Z" fill="#1E1E1E"/>
<path d="M200 125L200 150L175 125L200 125Z" fill="#1E1E1E"/>
<path d="M175 125L175 150L150 125L175 125Z" fill="#1E1E1E"/>
<path d="M150 125L150 150L125 125L150 125Z" fill="#1E1E1E"/>
<path d="M125 125L125 150L100 125L125 125Z" fill="#1E1E1E"/>
<path d="M100 125L100 150L75 125L100 125Z" fill="#1E1E1E"/>
<path d="M75 125L75 150L50 125L75 125Z" fill="#1E1E1E"/>
<path d="M50 125L50 150L25 125L50 125Z" fill="#1E1E1E"/>
<path d="M25 125L25 150L0 125L25 125Z" fill="#1E1E1E"/>
<path d="M200 150L200 175L175 150L200 150Z" fill="#1E1E1E"/>
<path d="M175 150L175 175L150 150L175 150Z" fill="#1E1E1E"/>
<path d="M150 150L150 175L125 150L150 150Z" fill="#1E1E1E"/>
<path d="M125 150L125 175L100 150L125 150Z" fill="#1E1E1E"/>
<path d="M100 150L100 175L75 150L100 150Z" fill="#1E1E1E"/>
<path d="M75 150L75 175L50 150L75 150Z" fill="#1E1E1E"/>
<path d="M50 150L50 175L25 150L50 150Z" fill="#1E1E1E"/>
<path d="M25 150L25 175L0 150L25 150Z" fill="#1E1E1E"/>
<path d="M200 175L200 200L175 175L200 175Z" fill="#1E1E1E"/>
<path d="M175 175L175 200L150 175L175 175Z" fill="#1E1E1E"/>
<path d="M150 175L150 200L125 175L150 175Z" fill="#1E1E1E"/>
<path d="M125 175L125 200L100 175L125 175Z" fill="#1E1E1E"/>
<path d="M100 175L100 200L75 175L100 175Z" fill="#1E1E1E"/>
<path d="M75 175L75 200L50 175L75 175Z" fill="#1E1E1E"/>
<path d="M50 175L50 200L25 175L50 175Z" fill="#1E1E1E"/>
<path d="M25 175L25 200L0 175L25 175Z" fill="#1E1E1E"/>
<rect width="200" height="200" transform="matrix(-8.74228e-08 1 1 8.74228e-08 400 200)" fill="#8EB5F0"/>
<path d="M400 300C455.228 300 500 344.772 500 400L400 400L400 300Z" fill="#E1EBFB"/>
<path d="M600 300C544.772 300 500 344.772 500 400L600 400L600 300Z" fill="#546EF3"/>
<path d="M400 300C455.228 300 500 255.228 500 200L400 200L400 300Z" fill="#E1EBFB"/>
<path d="M600 300C544.772 300 500 255.228 500 200L600 200L600 300Z" fill="#546EF3"/>
<rect x="800" y="200" width="200" height="200" transform="rotate(90 800 200)" fill="#8EB5F0"/>
<path d="M800 400C800 373.736 794.827 347.728 784.776 323.463C774.725 299.198 759.993 277.15 741.421 258.579C722.85 240.007 700.802 225.275 676.537 215.224C652.272 205.173 626.264 200 600 200L600 400L800 400Z" fill="#1E1E1E"/>
<path d="M700 400C700 386.868 697.413 373.864 692.388 361.732C687.362 349.599 679.997 338.575 670.711 329.289C661.425 320.003 650.401 312.638 638.268 307.612C626.136 302.587 613.132 300 600 300L600 400L700 400Z" fill="#546EF3"/>
<rect width="200" height="200" transform="matrix(0 -1 -1 0 400 600)" fill="#8EB5F0"/>
<path d="M400 500C344.772 500 300 455.228 300 400L400 400L400 500Z" fill="#E1EBFB"/>
<path d="M200 500C255.228 500 300 455.228 300 400L200 400L200 500Z" fill="#546EF3"/>
<path d="M400 500C344.772 500 300 544.772 300 600L400 600L400 500Z" fill="#E1EBFB"/>
<path d="M200 500C255.228 500 300 544.772 300 600L200 600L200 500Z" fill="#546EF3"/>
<rect y="600" width="200" height="200" transform="rotate(-90 0 600)" fill="#8EB5F0"/>
<path d="M-1.52588e-05 400C-1.52588e-05 426.264 5.17313 452.272 15.2241 476.537C25.275 500.802 40.0069 522.85 58.5786 541.421C77.1503 559.993 99.1982 574.725 123.463 584.776C147.728 594.827 173.736 600 200 600L200 400L-1.52588e-05 400Z" fill="#1E1E1E"/>
<path d="M100 400C100 413.132 102.587 426.136 107.612 438.268C112.638 450.401 120.003 461.425 129.289 470.711C138.575 479.997 149.599 487.362 161.732 492.388C173.864 497.413 186.868 500 200 500L200 400L100 400Z" fill="#546EF3"/>
<rect x="600" y="200" width="200" height="200" transform="rotate(-180 600 200)" fill="#8EB5F0"/>
<path d="M600 100C600 44.7715 555.228 -3.91405e-06 500 -8.74228e-06L500 200C555.228 200 600 155.228 600 100Z" fill="#546EF3"/>
<path d="M400 100C400 44.7715 444.772 3.91405e-06 500 8.74228e-06L500 200C444.772 200 400 155.228 400 100Z" fill="#E1EBFB"/>
<rect x="800" width="200" height="200" transform="rotate(90 800 0)" fill="#8EB5F0"/>
<path d="M600 -2.18557e-06L600 25L625 0L600 -2.18557e-06Z" fill="#1E1E1E"/>
<path d="M625 -2.18557e-06L625 25L650 0L625 -2.18557e-06Z" fill="#1E1E1E"/>
<path d="M650 -2.18557e-06L650 25L675 0L650 -2.18557e-06Z" fill="#1E1E1E"/>
<path d="M675 -2.18557e-06L675 25L700 0L675 -2.18557e-06Z" fill="#1E1E1E"/>
<path d="M700 -2.18557e-06L700 25L725 0L700 -2.18557e-06Z" fill="#1E1E1E"/>
<path d="M725 -2.18557e-06L725 25L750 0L725 -2.18557e-06Z" fill="#1E1E1E"/>
<path d="M750 -2.18557e-06L750 25L775 0L750 -2.18557e-06Z" fill="#1E1E1E"/>
<path d="M775 -2.18557e-06L775 25L800 0L775 -2.18557e-06Z" fill="#1E1E1E"/>
<path d="M600 25L600 50L625 25L600 25Z" fill="#1E1E1E"/>
<path d="M625 25L625 50L650 25L625 25Z" fill="#1E1E1E"/>
<path d="M650 25L650 50L675 25L650 25Z" fill="#1E1E1E"/>
<path d="M675 25L675 50L700 25L675 25Z" fill="#1E1E1E"/>
<path d="M700 25L700 50L725 25L700 25Z" fill="#1E1E1E"/>
<path d="M725 25L725 50L750 25L725 25Z" fill="#1E1E1E"/>
<path d="M750 25L750 50L775 25L750 25Z" fill="#1E1E1E"/>
<path d="M775 25L775 50L800 25L775 25Z" fill="#1E1E1E"/>
<path d="M600 50L600 75L625 50L600 50Z" fill="#1E1E1E"/>
<path d="M625 50L625 75L650 50L625 50Z" fill="#1E1E1E"/>
<path d="M650 50L650 75L675 50L650 50Z" fill="#1E1E1E"/>
<path d="M675 50L675 75L700 50L675 50Z" fill="#1E1E1E"/>
<path d="M700 50L700 75L725 50L700 50Z" fill="#1E1E1E"/>
<path d="M725 50L725 75L750 50L725 50Z" fill="#1E1E1E"/>
<path d="M750 50L750 75L775 50L750 50Z" fill="#1E1E1E"/>
<path d="M775 50L775 75L800 50L775 50Z" fill="#1E1E1E"/>
<path d="M600 75L600 100L625 75L600 75Z" fill="#1E1E1E"/>
<path d="M625 75L625 100L650 75L625 75Z" fill="#1E1E1E"/>
<path d="M650 75L650 100L675 75L650 75Z" fill="#1E1E1E"/>
<path d="M675 75L675 100L700 75L675 75Z" fill="#1E1E1E"/>
<path d="M700 75L700 100L725 75L700 75Z" fill="#1E1E1E"/>
<path d="M725 75L725 100L750 75L725 75Z" fill="#1E1E1E"/>
<path d="M750 75L750 100L775 75L750 75Z" fill="#1E1E1E"/>
<path d="M775 75L775 100L800 75L775 75Z" fill="#1E1E1E"/>
<path d="M600 100L600 125L625 100L600 100Z" fill="#1E1E1E"/>
<path d="M625 100L625 125L650 100L625 100Z" fill="#1E1E1E"/>
<path d="M650 100L650 125L675 100L650 100Z" fill="#1E1E1E"/>
<path d="M675 100L675 125L700 100L675 100Z" fill="#1E1E1E"/>
<path d="M700 100L700 125L725 100L700 100Z" fill="#1E1E1E"/>
<path d="M725 100L725 125L750 100L725 100Z" fill="#1E1E1E"/>
<path d="M750 100L750 125L775 100L750 100Z" fill="#1E1E1E"/>
<path d="M775 100L775 125L800 100L775 100Z" fill="#1E1E1E"/>
<path d="M600 125L600 150L625 125L600 125Z" fill="#1E1E1E"/>
<path d="M625 125L625 150L650 125L625 125Z" fill="#1E1E1E"/>
<path d="M650 125L650 150L675 125L650 125Z" fill="#1E1E1E"/>
<path d="M675 125L675 150L700 125L675 125Z" fill="#1E1E1E"/>
<path d="M700 125L700 150L725 125L700 125Z" fill="#1E1E1E"/>
<path d="M725 125L725 150L750 125L725 125Z" fill="#1E1E1E"/>
<path d="M750 125L750 150L775 125L750 125Z" fill="#1E1E1E"/>
<path d="M775 125L775 150L800 125L775 125Z" fill="#1E1E1E"/>
<path d="M600 150L600 175L625 150L600 150Z" fill="#1E1E1E"/>
<path d="M625 150L625 175L650 150L625 150Z" fill="#1E1E1E"/>
<path d="M650 150L650 175L675 150L650 150Z" fill="#1E1E1E"/>
<path d="M675 150L675 175L700 150L675 150Z" fill="#1E1E1E"/>
<path d="M700 150L700 175L725 150L700 150Z" fill="#1E1E1E"/>
<path d="M725 150L725 175L750 150L725 150Z" fill="#1E1E1E"/>
<path d="M750 150L750 175L775 150L750 150Z" fill="#1E1E1E"/>
<path d="M775 150L775 175L800 150L775 150Z" fill="#1E1E1E"/>
<path d="M600 175L600 200L625 175L600 175Z" fill="#1E1E1E"/>
<path d="M625 175L625 200L650 175L625 175Z" fill="#1E1E1E"/>
<path d="M650 175L650 200L675 175L650 175Z" fill="#1E1E1E"/>
<path d="M675 175L675 200L700 175L675 175Z" fill="#1E1E1E"/>
<path d="M700 175L700 200L725 175L700 175Z" fill="#1E1E1E"/>
<path d="M725 175L725 200L750 175L725 175Z" fill="#1E1E1E"/>
<path d="M750 175L750 200L775 175L750 175Z" fill="#1E1E1E"/>
<path d="M775 175L775 200L800 175L775 175Z" fill="#1E1E1E"/>
<rect x="200" y="600" width="200" height="200" fill="#8EB5F0"/>
<path d="M200 700C200 755.228 244.772 800 300 800L300 600C244.772 600 200 644.772 200 700Z" fill="#546EF3"/>
<path d="M400 700C400 755.228 355.229 800 300 800L300 600C355.229 600 400 644.772 400 700Z" fill="#E1EBFB"/>
<rect x="0.00012207" y="800" width="200" height="200" transform="matrix(0 -1 1 0 -800 800)" fill="#8EB5F0"/>
<path d="M200 800L200 775L175 800L200 800Z" fill="#1E1E1E"/>
<path d="M175 800L175 775L150 800L175 800Z" fill="#1E1E1E"/>
<path d="M150 800L150 775L125 800L150 800Z" fill="#1E1E1E"/>
<path d="M125 800L125 775L100 800L125 800Z" fill="#1E1E1E"/>
<path d="M100 800L100 775L75.0001 800L100 800Z" fill="#1E1E1E"/>
<path d="M75.0001 800L75.0001 775L50.0001 800L75.0001 800Z" fill="#1E1E1E"/>
<path d="M50.0001 800L50.0001 775L25.0001 800L50.0001 800Z" fill="#1E1E1E"/>
<path d="M25.0001 800L25.0001 775L0.00012207 800L25.0001 800Z" fill="#1E1E1E"/>
<path d="M200 775L200 750L175 775L200 775Z" fill="#1E1E1E"/>
<path d="M175 775L175 750L150 775L175 775Z" fill="#1E1E1E"/>
<path d="M150 775L150 750L125 775L150 775Z" fill="#1E1E1E"/>
<path d="M125 775L125 750L100 775L125 775Z" fill="#1E1E1E"/>
<path d="M100 775L100 750L75.0001 775L100 775Z" fill="#1E1E1E"/>
<path d="M75.0001 775L75.0001 750L50.0001 775L75.0001 775Z" fill="#1E1E1E"/>
<path d="M50.0001 775L50.0001 750L25.0001 775L50.0001 775Z" fill="#1E1E1E"/>
<path d="M25.0001 775L25.0001 750L0.00012207 775L25.0001 775Z" fill="#1E1E1E"/>
<path d="M200 750L200 725L175 750L200 750Z" fill="#1E1E1E"/>
<path d="M175 750L175 725L150 750L175 750Z" fill="#1E1E1E"/>
<path d="M150 750L150 725L125 750L150 750Z" fill="#1E1E1E"/>
<path d="M125 750L125 725L100 750L125 750Z" fill="#1E1E1E"/>
<path d="M100 750L100 725L75.0001 750L100 750Z" fill="#1E1E1E"/>
<path d="M75.0001 750L75.0001 725L50.0001 750L75.0001 750Z" fill="#1E1E1E"/>
<path d="M50.0001 750L50.0001 725L25.0001 750L50.0001 750Z" fill="#1E1E1E"/>
<path d="M25.0001 750L25.0001 725L0.00012207 750L25.0001 750Z" fill="#1E1E1E"/>
<path d="M200 725L200 700L175 725L200 725Z" fill="#1E1E1E"/>
<path d="M175 725L175 700L150 725L175 725Z" fill="#1E1E1E"/>
<path d="M150 725L150 700L125 725L150 725Z" fill="#1E1E1E"/>
<path d="M125 725L125 700L100 725L125 725Z" fill="#1E1E1E"/>
<path d="M100 725L100 700L75.0001 725L100 725Z" fill="#1E1E1E"/>
<path d="M75.0001 725L75.0001 700L50.0001 725L75.0001 725Z" fill="#1E1E1E"/>
<path d="M50.0001 725L50.0001 700L25.0001 725L50.0001 725Z" fill="#1E1E1E"/>
<path d="M25.0001 725L25.0001 700L0.00012207 725L25.0001 725Z" fill="#1E1E1E"/>
<path d="M200 700L200 675L175 700L200 700Z" fill="#1E1E1E"/>
<path d="M175 700L175 675L150 700L175 700Z" fill="#1E1E1E"/>
<path d="M150 700L150 675L125 700L150 700Z" fill="#1E1E1E"/>
<path d="M125 700L125 675L100 700L125 700Z" fill="#1E1E1E"/>
<path d="M100 700L100 675L75.0001 700L100 700Z" fill="#1E1E1E"/>
<path d="M75.0001 700L75.0001 675L50.0001 700L75.0001 700Z" fill="#1E1E1E"/>
<path d="M50.0001 700L50.0001 675L25.0001 700L50.0001 700Z" fill="#1E1E1E"/>
<path d="M25.0001 700L25.0001 675L0.00012207 700L25.0001 700Z" fill="#1E1E1E"/>
<path d="M200 675L200 650L175 675L200 675Z" fill="#1E1E1E"/>
<path d="M175 675L175 650L150 675L175 675Z" fill="#1E1E1E"/>
<path d="M150 675L150 650L125 675L150 675Z" fill="#1E1E1E"/>
<path d="M125 675L125 650L100 675L125 675Z" fill="#1E1E1E"/>
<path d="M100 675L100 650L75.0001 675L100 675Z" fill="#1E1E1E"/>
<path d="M75.0001 675L75.0001 650L50.0001 675L75.0001 675Z" fill="#1E1E1E"/>
<path d="M50.0001 675L50.0001 650L25.0001 675L50.0001 675Z" fill="#1E1E1E"/>
<path d="M25.0001 675L25.0001 650L0.00012207 675L25.0001 675Z" fill="#1E1E1E"/>
<path d="M200 650L200 625L175 650L200 650Z" fill="#1E1E1E"/>
<path d="M175 650L175 625L150 650L175 650Z" fill="#1E1E1E"/>
<path d="M150 650L150 625L125 650L150 650Z" fill="#1E1E1E"/>
<path d="M125 650L125 625L100 650L125 650Z" fill="#1E1E1E"/>
<path d="M100 650L100 625L75.0001 650L100 650Z" fill="#1E1E1E"/>
<path d="M75.0001 650L75.0001 625L50.0001 650L75.0001 650Z" fill="#1E1E1E"/>
<path d="M50.0001 650L50.0001 625L25.0001 650L50.0001 650Z" fill="#1E1E1E"/>
<path d="M25.0001 650L25.0001 625L0.00012207 650L25.0001 650Z" fill="#1E1E1E"/>
<path d="M200 625L200 600L175 625L200 625Z" fill="#1E1E1E"/>
<path d="M175 625L175 600L150 625L175 625Z" fill="#1E1E1E"/>
<path d="M150 625L150 600L125 625L150 625Z" fill="#1E1E1E"/>
<path d="M125 625L125 600L100 625L125 625Z" fill="#1E1E1E"/>
<path d="M100 625L100 600L75.0001 625L100 625Z" fill="#1E1E1E"/>
<path d="M75.0001 625L75.0001 600L50.0001 625L75.0001 625Z" fill="#1E1E1E"/>
<path d="M50.0001 625L50.0001 600L25.0001 625L50.0001 625Z" fill="#1E1E1E"/>
<path d="M25.0001 625L25.0001 600L0.00012207 625L25.0001 625Z" fill="#1E1E1E"/>
</svg>
